SplineFontDB: 3.0
FontName: Comme-ExtraLight
FullName: Comme ExtraLight
FamilyName: Comme
Weight: ExtraLight
Copyright: Digitized data Copyright (c) 2011-2014, vernon adams.
Version: 2
ItalicAngle: 0
UnderlinePosition: 0
UnderlineWidth: 0
Ascent: 1638
Descent: 410
UFOAscent: 1560
UFODescent: -556
LayerCount: 2
Layer: 0 0 "Back"  1
Layer: 1 0 "Fore"  0
FSType: 0
OS2Version: 0
OS2_WeightWidthSlopeOnly: 0
OS2_UseTypoMetrics: 1
CreationTime: 1392149854
ModificationTime: 1392242494
PfmFamily: 17
TTFWeight: 200
TTFWidth: 5
LineGap: 0
VLineGap: 0
OS2TypoAscent: 2390
OS2TypoAOffset: 0
OS2TypoDescent: -512
OS2TypoDOffset: 0
OS2TypoLinegap: 0
OS2WinAscent: 2390
OS2WinAOffset: 0
OS2WinDescent: 512
OS2WinDOffset: 0
HheadAscent: 2390
HheadAOffset: 0
HheadDescent: -512
HheadDOffset: 0
OS2Vendor: 'NeWT'
Lookup: 4 0 1 "ligaStandardLigatureslookup0"  {"ligaStandardLigatureslookup0 subtable"  } ['liga' ('latn' <'dflt' > 'grek' <'dflt' > 'DFLT' <'dflt' > ) ]
Lookup: 4 0 0 "fracDiagonalFractionslookup11"  {"fracDiagonalFractionslookup11 subtable"  } ['frac' ('latn' <'dflt' 'CAT ' 'MOL ' 'ROM ' 'TRK ' > 'grek' <'dflt' > 'DFLT' <'dflt' > ) ]
Lookup: 6 0 0 "ordnOrdinalslookup12"  {"ordnOrdinalslookup12 contextual 0"  "ordnOrdinalslookup12 contextual 1"  } ['ordn' ('latn' <'dflt' 'CAT ' 'MOL ' 'ROM ' 'TRK ' > 'grek' <'dflt' > 'DFLT' <'dflt' > ) ]
Lookup: 1 0 0 "Single Substitution lookup 3"  {"Single Substitution lookup 3 subtable"  } []
Lookup: 1 0 0 "Single Substitution lookup 4"  {"Single Substitution lookup 4 subtable"  } []
Lookup: 4 0 0 "dligDiscretionaryLigatureslooku"  {"dligDiscretionaryLigatureslooku subtable"  } ['dlig' ('latn' <'dflt' 'CAT ' 'MOL ' 'ROM ' 'TRK ' > 'grek' <'dflt' > 'DFLT' <'dflt' > ) ]
MarkAttachClasses: 1
DEI: 91125
ChainSub2: coverage "ordnOrdinalslookup12 contextual 1"  0 0 0 1
 1 1 0
  Coverage: 3 O o
  BCoverage: 49 zero one two three four five six seven eight nine
 1
  SeqLookup: 0 "Single Substitution lookup 4" 
EndFPST

StartChar: A
Encoding: 33 65 0
Width: 1323
VWidth: 0
GlyphClass: 2
Flags: W
PickledData: "(dp1
S'org.pippin.gimp.org.kernagic'
p2
(dp3
S'lstem'
p4
I0
sS'rstem'
p5
I0
ssS'com.typemytype.robofont.layerData'
p6
(dp7
sS'org.robofab.postScriptHintData'
p8
(dp9
s."
AnchorPoint: "bot" 661 0 basechar 0
AnchorPoint: "top" 660 1455 basechar 0
LayerCount: 2
Fore
SplineSet
610 1455 m 257
 55 0 l 257
 175 0 l 257
 362 494 l 257
 968 494 l 257
 1153 0 l 257
 1268 0 l 257
 711 1455 l 257
 610 1455 l 257
395 584 m 257
 660 1316 l 257
 936 584 l 257
 395 584 l 257
EndSplineSet
Substitution2: "Single Substitution lookup 3 subtable" ordfeminine
EndChar

StartChar: AE
Encoding: 133 198 1
Width: 1807
VWidth: 0
GlyphClass: 2
Flags: W
PickledData: "(dp1
S'org.pippin.gimp.org.kernagic'
p2
(dp3
S'lstem'
p4
I0
sS'rstem'
p5
I0
ssS'com.typemytype.robofont.layerData'
p6
(dp7
sS'org.robofab.postScriptHintData'
p8
(dp9
s."
LayerCount: 2
Fore
SplineSet
955 588 m 257
 491 588 l 257
 955 1346 l 257
 955 588 l 257
903 1455 m 257
 -1 0 l 257
 130 0 l 257
 439 498 l 257
 955 498 l 257
 955 0 l 257
 1753 0 l 257
 1762 95 l 257
 1069 95 l 257
 1069 705 l 257
 1678 705 l 257
 1678 800 l 257
 1069 800 l 257
 1069 1360 l 257
 1754 1360 l 257
 1758 1455 l 257
 903 1455 l 257
EndSplineSet
EndChar

StartChar: B
Encoding: 34 66 13
Width: 1366
VWidth: 0
GlyphClass: 2
Flags: W
PickledData: "(dp1
S'org.pippin.gimp.org.kernagic'
p2
(dp3
S'lstem'
p4
I0
sS'rstem'
p5
I0
ssS'com.typemytype.robofont.layerData'
p6
(dp7
sS'org.robofab.postScriptHintData'
p8
(dp9
s."
AnchorPoint: "top" 674 1456 basechar 0
LayerCount: 2
Fore
SplineSet
564 -12 m 256
 1098 -12 1239 125 1239 412 c 256
 1239 601 1138 724 920 772 c 257
 1131 835 1180 952 1180 1102 c 256
 1180 1302 1105 1466 576 1466 c 256
 474 1466 355 1459 216 1446 c 257
 216 3 l 257
 347 -7 463 -12 564 -12 c 256
338 1361 m 257
 435 1367 520 1371 594 1371 c 256
 968 1371 1070 1296 1070 1094 c 256
 1070 864 910 821 707 821 c 258
 338 821 l 257
 338 1361 l 257
338 727 m 257
 649 727 l 258
 969 727 1118 645 1118 405 c 256
 1118 192 1055 84 595 84 c 256
 521 84 435 87 338 92 c 257
 338 727 l 257
EndSplineSet
EndChar

StartChar: C
Encoding: 35 67 14
Width: 1352
VWidth: 0
GlyphClass: 2
Flags: W
PickledData: "(dp1
S'org.pippin.gimp.org.kernagic'
p2
(dp3
S'lstem'
p4
I0
sS'rstem'
p5
I0
ssS'com.typemytype.robofont.layerData'
p6
(dp7
sS'org.robofab.postScriptHintData'
p8
(dp9
s."
AnchorPoint: "bot" 812 0 basechar 0
AnchorPoint: "top" 800 1455 basechar 0
LayerCount: 2
Fore
SplineSet
1289 1140 m 257
 1218 1361 1009 1476 794 1476 c 256
 404 1476 151 1194 151 728 c 256
 151 262 405 -20 796 -20 c 256
 1009 -20 1221 97 1291 317 c 257
 1207 349 l 257
 1194 349 l 257
 1136 184 978 78 799 78 c 256
 478 78 273 317 273 728 c 256
 273 1140 478 1379 799 1379 c 256
 979 1379 1135 1273 1193 1108 c 257
 1207 1108 l 257
 1289 1140 l 257
EndSplineSet
EndChar

StartChar: D
Encoding: 36 68 21
Width: 1514
VWidth: 0
GlyphClass: 2
Flags: W
PickledData: "(dp1
S'org.pippin.gimp.org.kernagic'
p2
(dp3
S'lstem'
p4
I0
sS'rstem'
p5
I0
ssS'com.fontlab.hintData'
p6
(dp7
S'vhints'
p8
((dp9
S'position'
p10
I1280
sS'width'
p11
I122
stp12
sS'hhints'
p13
((dp14
g10
I0
sg11
I94
s(dp15
g10
I1355
sg11
I94
stp16
ssS'com.typemytype.robofont.layerData'
p17
(dp18
sS'org.robofab.postScriptHintData'
p19
(dp20
s."
HStem: 0 94 1355 94
VStem: 1280 122
AnchorPoint: "bot" 770 0 basechar 0
AnchorPoint: "top" 752 1455 basechar 0
LayerCount: 2
Fore
SplineSet
216 4 m 257
 320 -5 416 -10 503 -10 c 256
 1163 -10 1364 251 1364 735 c 256
 1364 1210 1196 1465 557 1465 c 256
 456 1465 342 1459 216 1446 c 257
 216 4 l 257
338 87 m 257
 338 1362 l 257
 416 1368 488 1371 554 1371 c 256
 1095 1371 1242 1166 1242 730 c 256
 1242 314 1091 79 537 79 c 256
 476 79 409 81 338 87 c 257
EndSplineSet
EndChar

StartChar: uni0394
Encoding: 413 916 24
Width: 1350
VWidth: 0
Flags: W
PickledData: "(dp1
S'org.pippin.gimp.org.kernagic'
p2
(dp3
S'lstem'
p4
I0
sS'rstem'
p5
I0
ssS'com.typemytype.robofont.layerData'
p6
(dp7
S'b'
(dp8
S'name'
p9
S'Delta'
p10
sS'lib'
p11
(dp12
sS'unicodes'
p13
(tsS'width'
p14
I1334
sS'contours'
p15
(tsS'components'
p16
(tsS'anchors'
p17
(tsssS'org.robofab.postScriptHintData'
p18
(dp19
s."
LayerCount: 2
Fore
SplineSet
239 110 m 257
 654 1374 l 257
 1087 110 l 257
 239 110 l 257
95 0 m 257
 1232 0 l 257
 716 1493 l 257
 598 1493 l 257
 95 0 l 257
EndSplineSet
EndChar

StartChar: E
Encoding: 37 69 25
Width: 1195
VWidth: 0
GlyphClass: 2
Flags: W
PickledData: "(dp1
S'org.pippin.gimp.org.kernagic'
p2
(dp3
S'lstem'
p4
I0
sS'rstem'
p5
I0
ssS'com.typemytype.robofont.layerData'
p6
(dp7
sS'org.robofab.postScriptHintData'
p8
(dp9
s."
AnchorPoint: "bot" 622 0 basechar 0
AnchorPoint: "top" 688 1455 basechar 0
LayerCount: 2
Fore
SplineSet
216 1455 m 257
 216 0 l 257
 1101 0 l 257
 1110 95 l 257
 338 95 l 257
 338 701 l 257
 1025 701 l 257
 1025 796 l 257
 338 796 l 257
 338 1360 l 257
 1102 1360 l 257
 1105 1455 l 257
 216 1455 l 257
EndSplineSet
EndChar

StartChar: Eng
Encoding: 265 330 34
Width: 1528
VWidth: 0
GlyphClass: 2
Flags: W
PickledData: "(dp1
S'org.robofab.postScriptHintData'
p2
(dp3
s."
LayerCount: 2
Fore
SplineSet
1212 714 m 257
 1212 -17 l 258
 1212 -252 1141 -332 766 -332 c 257
 773 -425 l 257
 1205 -425 1315 -302 1315 -30 c 258
 1315 714 l 257
 1212 714 l 257
EndSplineSet
Refer: 70 78 N 1 0 0 1 0 0 2
EndChar

StartChar: Euro
Encoding: 461 8364 37
Width: 1353
VWidth: 0
GlyphClass: 2
Flags: W
PickledData: "(dp1
S'org.pippin.gimp.org.kernagic'
p2
(dp3
S'lstem'
p4
I0
sS'rstem'
p5
I0
ssS'com.typemytype.robofont.layerData'
p6
(dp7
S'b'
(dp8
S'name'
p9
S'Euro'
p10
sS'lib'
p11
(dp12
sS'unicodes'
p13
(tsS'width'
p14
I1391
sS'contours'
p15
(tsS'components'
p16
(tsS'anchors'
p17
(tsssS'org.robofab.postScriptHintData'
p18
(dp19
s."
LayerCount: 2
Fore
SplineSet
-15 541 m 257
 881 541 l 257
 892 635 l 257
 215 635 l 257
 216 836 l 257
 892 836 l 257
 903 928 l 257
 4 928 l 257
 -6 836 l 257
 154 836 l 257
 153 635 l 257
 -4 635 l 257
 -15 541 l 257
EndSplineSet
Refer: 14 67 N 1 0 0 1 -31 0 2
EndChar

StartChar: F
Encoding: 38 70 38
Width: 1109
VWidth: 0
GlyphClass: 2
Flags: W
PickledData: "(dp1
S'org.pippin.gimp.org.kernagic'
p2
(dp3
S'lstem'
p4
I0
sS'rstem'
p5
I705
ssS'com.typemytype.robofont.layerData'
p6
(dp7
sS'org.robofab.postScriptHintData'
p8
(dp9
s."
AnchorPoint: "top" 609 1455 basechar 0
LayerCount: 2
Fore
SplineSet
216 1455 m 257
 216 0 l 257
 341 0 l 257
 341 687 l 257
 981 687 l 257
 981 777 l 257
 341 777 l 257
 341 1360 l 257
 1044 1360 l 257
 1053 1455 l 257
 216 1455 l 257
EndSplineSet
EndChar

StartChar: G
Encoding: 39 71 39
Width: 1479
VWidth: 0
GlyphClass: 2
Flags: W
PickledData: "(dp1
S'org.pippin.gimp.org.kernagic'
p2
(dp3
S'lstem'
p4
I0
sS'rstem'
p5
I0
ssS'com.typemytype.robofont.layerData'
p6
(dp7
sS'org.robofab.postScriptHintData'
p8
(dp9
s."
AnchorPoint: "bot" 843 0 basechar 0
AnchorPoint: "top" 834 1455 basechar 0
LayerCount: 2
Fore
SplineSet
842 -19 m 256
 1039 -19 1181 12 1324 65 c 257
 1324 735 l 257
 876 735 l 257
 865 637 l 257
 1206 628 l 257
 1206 126 l 257
 1127 104 1000 80 865 80 c 256
 461 80 272 339 272 728 c 256
 272 1137 524 1375 861 1375 c 256
 1015 1375 1149 1322 1251 1250 c 257
 1263 1250 l 257
 1310 1332 l 257
 1187 1421 1025 1474 856 1474 c 256
 446 1474 150 1187 150 727 c 256
 150 305 379 -19 842 -19 c 256
EndSplineSet
EndChar

StartChar: H
Encoding: 40 72 45
Width: 1507
VWidth: 0
GlyphClass: 2
Flags: W
PickledData: "(dp1
S'org.pippin.gimp.org.kernagic'
p2
(dp3
S'lstem'
p4
I0
sS'rstem'
p5
I0
ssS'com.typemytype.robofont.layerData'
p6
(dp7
sS'org.robofab.postScriptHintData'
p8
(dp9
s."
AnchorPoint: "top" 759 1455 basechar 0
LayerCount: 2
Fore
SplineSet
1169 702 m 257
 1169 0 l 257
 1291 0 l 257
 1291 1455 l 257
 1169 1455 l 257
 1169 794 l 257
 337 794 l 257
 337 1455 l 257
 215 1455 l 257
 215 0 l 257
 337 0 l 257
 337 702 l 257
 1169 702 l 257
EndSplineSet
EndChar

StartChar: Hbar
Encoding: 229 294 46
Width: 1483
VWidth: 0
GlyphClass: 2
Flags: W
PickledData: "(dp1
S'org.pippin.gimp.org.kernagic'
p2
(dp3
S'lstem'
p4
I0
sS'rstem'
p5
I0
ssS'com.typemytype.robofont.layerData'
p6
(dp7
sS'org.robofab.postScriptHintData'
p8
(dp9
s."
LayerCount: 2
Fore
SplineSet
90 1195 m 257
 90 1114 l 257
 1386 1114 l 257
 1386 1195 l 257
 90 1195 l 257
EndSplineSet
Refer: 45 72 N 1 0 0 1 0 0 2
EndChar

StartChar: I
Encoding: 41 73 48
Width: 826
VWidth: 0
GlyphClass: 2
Flags: W
PickledData: "(dp1
S'org.pippin.gimp.org.kernagic'
p2
(dp3
S'lstem'
p4
I0
sS'rstem'
p5
I0
ssS'com.fontlab.hintData'
p6
(dp7
S'vhints'
p8
((dp9
S'position'
p10
I111
sS'width'
p11
I529
stp12
sS'hhints'
p13
((dp14
g10
I0
sg11
I86
s(dp15
g10
I1363
sg11
I86
stp16
ssS'com.typemytype.robofont.layerData'
p17
(dp18
sS'org.robofab.postScriptHintData'
p19
(dp20
s."
HStem: 0 86 1363 86
VStem: 111 529
AnchorPoint: "top" 411 1455 basechar 0
LayerCount: 2
Fore
SplineSet
147 1455 m 257
 147 1378 l 257
 351 1378 l 257
 351 78 l 257
 147 78 l 257
 147 0 l 257
 676 0 l 257
 676 78 l 257
 473 78 l 257
 473 1378 l 257
 676 1378 l 257
 676 1455 l 257
 147 1455 l 257
EndSplineSet
EndChar

StartChar: J
Encoding: 42 74 59
Width: 717
VWidth: 0
GlyphClass: 2
Flags: W
PickledData: "(dp1
S'org.pippin.gimp.org.kernagic'
p2
(dp3
S'lstem'
p4
I132
sS'rstem'
p5
I0
ssS'com.typemytype.robofont.layerData'
p6
(dp7
sS'org.robofab.postScriptHintData'
p8
(dp9
s."
AnchorPoint: "top" 430 1455 basechar 0
LayerCount: 2
Fore
SplineSet
366 1455 m 257
 366 40 l 258
 366 -153 334 -176 184 -238 c 258
 101 -272 l 257
 140 -368 l 257
 205 -344 l 257
 433 -257 488 -207 488 63 c 258
 488 1455 l 257
 366 1455 l 257
EndSplineSet
EndChar

StartChar: K
Encoding: 43 75 61
Width: 1264
VWidth: 0
GlyphClass: 2
Flags: W
PickledData: "(dp1
S'org.pippin.gimp.org.kernagic'
p2
(dp3
S'lstem'
p4
I0
sS'rstem'
p5
I851
ssS'com.typemytype.robofont.layerData'
p6
(dp7
sS'org.robofab.postScriptHintData'
p8
(dp9
s."
AnchorPoint: "bot" 644 0 basechar 0
AnchorPoint: "top" 643 1455 basechar 0
LayerCount: 2
Fore
SplineSet
1190 1456 m 257
 1055 1456 l 257
 338 732 l 257
 338 1456 l 257
 216 1456 l 257
 216 0 l 257
 338 0 l 257
 338 617 l 257
 480 757 l 257
 1092 0 l 257
 1229 0 l 257
 1229 12 l 257
 573 822 l 257
 1190 1443 l 257
 1190 1456 l 257
EndSplineSet
EndChar

StartChar: L
Encoding: 44 76 63
Width: 1085
VWidth: 0
GlyphClass: 2
Flags: W
PickledData: "(dp1
S'org.pippin.gimp.org.kernagic'
p2
(dp3
S'lstem'
p4
I0
sS'rstem'
p5
I597
ssS'com.typemytype.robofont.layerData'
p6
(dp7
sS'org.robofab.postScriptHintData'
p8
(dp9
s."
AnchorPoint: "bot" 638 0 basechar 0
AnchorPoint: "top" 504 1455 basechar 0
LayerCount: 2
Fore
SplineSet
216 1455 m 257
 216 0 l 257
 1044 0 l 257
 1043 95 l 257
 338 95 l 257
 338 1455 l 257
 216 1455 l 257
EndSplineSet
EndChar

StartChar: M
Encoding: 45 77 69
Width: 1780
VWidth: 0
GlyphClass: 2
Flags: W
PickledData: "(dp1
S'org.pippin.gimp.org.kernagic'
p2
(dp3
S'lstem'
p4
I0
sS'rstem'
p5
I0
ssS'org.robofab.postScriptHintData'
p6
(dp7
sS'com.typemytype.robofont.guides'
p8
((dp9
S'y'
I378
sS'x'
I548
sS'magnetic'
p10
I5
sS'angle'
p11
I0
sS'isGlobal'
p12
I00
stp13
sS'com.typemytype.robofont.layerData'
p14
(dp15
sS'com.fontlab.hintData'
p16
(dp17
S'vhints'
p18
((dp19
S'position'
p20
I185
sS'width'
p21
I166
s(dp22
g20
I214
sg21
I151
s(dp23
g20
I332
sg21
I33
s(dp24
g20
I1463
sg21
I149
s(dp25
g20
I1463
sg21
I39
s(dp26
g20
I1477
sg21
I164
stp27
ss."
VStem: 185 166 214 151 332 33 1463 149 1463 39 1477 164
AnchorPoint: "top" 896 1455 basechar 0
LayerCount: 2
Fore
SplineSet
198 0 m 257
 311 0 l 257
 311 539 l 257
 321 1319 l 257
 838 147 l 257
 944 147 l 257
 1461 1311 l 257
 1470 541 l 257
 1470 0 l 257
 1583 0 l 257
 1583 539 l 257
 1562 1455 l 257
 1409 1455 l 257
 893 280 l 257
 377 1455 l 257
 217 1455 l 257
 198 539 l 257
 198 0 l 257
EndSplineSet
EndChar

StartChar: N
Encoding: 46 78 70
Width: 1531
VWidth: 0
GlyphClass: 2
Flags: W
PickledData: "(dp1
S'org.pippin.gimp.org.kernagic'
p2
(dp3
S'lstem'
p4
I0
sS'rstem'
p5
I0
ssS'com.typemytype.robofont.layerData'
p6
(dp7
sS'org.robofab.postScriptHintData'
p8
(dp9
s."
AnchorPoint: "bot" 772 0 basechar 0
AnchorPoint: "top" 780 1455 basechar 0
LayerCount: 2
Fore
SplineSet
1212 1455 m 257
 1212 538 l 257
 1219 153 l 257
 329 1455 l 257
 216 1455 l 257
 216 0 l 257
 321 0 l 257
 321 903 l 257
 309 1300 l 257
 1199 0 l 257
 1315 0 l 257
 1315 1455 l 257
 1212 1455 l 257
EndSplineSet
EndChar

StartChar: O
Encoding: 47 79 76
Width: 1634
VWidth: 0
GlyphClass: 2
Flags: W
PickledData: "(dp1
S'org.pippin.gimp.org.kernagic'
p2
(dp3
S'lstem'
p4
I0
sS'rstem'
p5
I0
ssS'org.robofab.postScriptHintData'
p6
(dp7
sS'com.typemytype.robofont.guides'
p8
(tsS'com.typemytype.robofont.layerData'
p9
(dp10
sS'com.fontlab.hintData'
p11
(dp12
S'vhints'
p13
((dp14
S'position'
p15
I150
sS'width'
p16
I122
s(dp17
g15
I1390
sg16
I122
stp18
sS'hhints'
p19
((dp20
g15
I-19
sg16
I96
s(dp21
g15
I1372
sg16
I96
stp22
ss."
HStem: -19 96 1372 96
VStem: 150 122 1390 122
AnchorPoint: "top" 819 1455 basechar 0
LayerCount: 2
Fore
SplineSet
1360 716 m 256
 1360 342 1215 78 818 78 c 256
 421 78 275 342 275 716 c 256
 275 1111 437 1378 821 1378 c 256
 1205 1378 1360 1108 1360 716 c 256
152 717 m 256
 152 277 359 -19 821 -19 c 256
 1275 -19 1482 285 1482 713 c 256
 1482 1166 1258 1475 822 1475 c 256
 372 1475 152 1171 152 717 c 256
EndSplineSet
Substitution2: "Single Substitution lookup 4 subtable" ordmasculine
EndChar

StartChar: OE
Encoding: 273 338 77
Width: 2608
VWidth: 0
GlyphClass: 2
Flags: W
PickledData: "(dp1
S'org.pippin.gimp.org.kernagic'
p2
(dp3
S'lstem'
p4
I0
sS'rstem'
p5
I0
ssS'com.typemytype.robofont.layerData'
p6
(dp7
S'b'
(dp8
S'name'
p9
S'OE'
p10
sS'lib'
p11
(dp12
sS'unicodes'
p13
(tsS'width'
p14
I2367
sS'contours'
p15
(tsS'components'
p16
(tsS'anchors'
p17
(tsssS'org.robofab.postScriptHintData'
p18
(dp19
s."
LayerCount: 2
Fore
SplineSet
1355 716 m 256
 1355 342 1210 78 813 78 c 256
 416 78 269 342 269 716 c 256
 269 1111 432 1378 815 1378 c 256
 1200 1378 1355 1108 1355 716 c 256
147 717 m 256
 147 277 353 -19 815 -19 c 256
 1075 -19 1257 87 1356 260 c 257
 1356 0 l 257
 2241 0 l 257
 2250 95 l 257
 1478 95 l 257
 1478 701 l 257
 2165 701 l 257
 2165 796 l 257
 1478 796 l 257
 1478 1360 l 257
 2241 1360 l 257
 2245 1455 l 257
 1356 1455 l 257
 1356 1180 l 257
 1254 1364 1069 1475 816 1475 c 256
 366 1475 147 1171 147 717 c 256
EndSplineSet
EndChar

StartChar: Oslash
Encoding: 151 216 85
Width: 1656
VWidth: 0
GlyphClass: 2
Flags: W
PickledData: "(dp1
S'org.pippin.gimp.org.kernagic'
p2
(dp3
S'lstem'
p4
I0
sS'rstem'
p5
I0
ssS'com.typemytype.robofont.layerData'
p6
(dp7
sS'org.robofab.postScriptHintData'
p8
(dp9
s."
AnchorPoint: "top" 822 1456 basechar 0
LayerCount: 2
Fore
SplineSet
818 78 m 256
 745 78 681 86 624 104 c 257
 1099 1311 l 257
 1282 1208 1360 993 1360 716 c 256
 1360 342 1215 78 818 78 c 256
554 130 m 257
 354 225 275 441 275 716 c 256
 275 1111 437 1378 821 1378 c 256
 899 1378 969 1366 1029 1345 c 257
 554 130 l 257
494 -230 m 257
 588 11 l 257
 657 -9 734 -19 821 -19 c 256
 1275 -19 1482 285 1482 713 c 256
 1482 1039 1366 1291 1137 1406 c 257
 1232 1649 l 257
 1158 1676 l 257
 1065 1437 l 257
 993 1462 912 1475 822 1475 c 256
 372 1475 152 1171 152 717 c 256
 152 389 267 140 517 35 c 257
 424 -205 l 257
 494 -230 l 257
EndSplineSet
EndChar

StartChar: P
Encoding: 48 80 88
Width: 1235
VWidth: 0
GlyphClass: 2
Flags: W
PickledData: "(dp1
S'org.pippin.gimp.org.kernagic'
p2
(dp3
S'lstem'
p4
I0
sS'rstem'
p5
I807
ssS'com.typemytype.robofont.layerData'
p6
(dp7
sS'org.robofab.postScriptHintData'
p8
(dp9
s."
AnchorPoint: "top" 634 1455 basechar 0
LayerCount: 2
Fore
SplineSet
216 1446 m 257
 216 0 l 257
 338 0 l 257
 338 699 l 257
 419 693 491 690 557 690 c 256
 1025 690 1134 832 1134 1095 c 256
 1134 1350 1007 1464 573 1464 c 256
 472 1464 353 1458 216 1446 c 257
338 791 m 257
 338 1362 l 257
 432 1368 513 1372 584 1372 c 256
 931 1372 1019 1292 1019 1096 c 256
 1019 868 943 783 563 783 c 256
 497 783 423 786 338 791 c 257
EndSplineSet
EndChar

StartChar: Q
Encoding: 49 81 89
Width: 1624
VWidth: 0
GlyphClass: 2
Flags: W
PickledData: "(dp1
S'org.pippin.gimp.org.kernagic'
p2
(dp3
S'lstem'
p4
I0
sS'rstem'
p5
I0
ssS'com.typemytype.robofont.layerData'
p6
(dp7
sS'org.robofab.postScriptHintData'
p8
(dp9
s."
LayerCount: 2
Fore
SplineSet
925 22 m 257
 980 -89 1207 -377 1230 -409 c 257
 1302 -348 l 257
 1259 -303 1049 -25 1017 46 c 257
 925 22 l 257
EndSplineSet
Refer: 76 79 N 1 0 0 1 0 0 2
EndChar

StartChar: R
Encoding: 50 82 90
Width: 1373
VWidth: 0
GlyphClass: 2
Flags: W
PickledData: "(dp1
S'org.pippin.gimp.org.kernagic'
p2
(dp3
S'lstem'
p4
I0
sS'rstem'
p5
I839
ssS'com.fontlab.hintData'
p6
(dp7
S'vhints'
p8
((dp9
S'position'
p10
I1122
sS'width'
p11
I117
stp12
sS'hhints'
p13
((dp14
g10
I722
sg11
I96
s(dp15
g10
I1355
sg11
I94
stp16
ssS'com.typemytype.robofont.layerData'
p17
(dp18
sS'org.robofab.postScriptHintData'
p19
(dp20
s."
HStem: 722 96 1355 94
VStem: 1122 117
AnchorPoint: "bot" 706 0 basechar 0
AnchorPoint: "top" 700 1456 basechar 0
LayerCount: 2
Fore
SplineSet
1219 1095 m 256
 1219 1357 1112 1465 638 1465 c 256
 521 1465 382 1458 216 1446 c 257
 216 0 l 257
 338 0 l 257
 338 721 l 257
 810 722 l 257
 1145 0 l 257
 1266 0 l 257
 1266 16 l 257
 934 734 l 257
 1121 775 1219 879 1219 1095 c 256
338 1362 m 257
 459 1371 562 1376 649 1376 c 256
 1039 1376 1106 1285 1106 1091 c 256
 1106 887 1040 811 726 811 c 258
 338 811 l 257
 338 1362 l 257
EndSplineSet
EndChar

StartChar: S
Encoding: 51 83 94
Width: 1202
VWidth: 0
GlyphClass: 2
Flags: W
PickledData: "(dp1
S'org.pippin.gimp.org.kernagic'
p2
(dp3
S'lstem'
p4
I185
sS'rstem'
p5
I826
ssS'com.typemytype.robofont.guides'
p6
((dp7
S'y'
I973
sS'x'
I1035
sS'magnetic'
p8
I5
sS'angle'
p9
F90
sS'isGlobal'
p10
I00
s(dp11
S'y'
I382
sS'x'
I75
sg8
I5
sg9
F90
sg10
I00
stp12
sS'com.typemytype.robofont.layerData'
p13
(dp14
sS'org.robofab.postScriptHintData'
p15
(dp16
s."
AnchorPoint: "bot" 621 0 basechar 0
AnchorPoint: "top" 617 1463 basechar 0
LayerCount: 2
Fore
SplineSet
973 389 m 256
 973 162 828 78 599 78 c 256
 418 78 304 131 207 220 c 257
 198 220 l 257
 139 151 l 257
 193 89 333 -19 599 -19 c 256
 850 -19 1082 75 1082 391 c 256
 1082 634 922 698 722 779 c 258
 498 871 l 258
 318 945 265 979 265 1125 c 256
 265 1321 455 1381 630 1381 c 256
 794 1381 908 1313 968 1256 c 257
 979 1256 l 257
 1031 1326 l 257
 958 1404 809 1475 634 1475 c 256
 410 1475 149 1406 149 1108 c 256
 149 908 264 850 462 770 c 257
 684 679 l 257
 905 590 973 541 973 389 c 256
EndSplineSet
EndChar

StartChar: T
Encoding: 52 84 100
Width: 1127
VWidth: 0
GlyphClass: 2
Flags: W
PickledData: "(dp1
S'org.pippin.gimp.org.kernagic'
p2
(dp3
S'lstem'
p4
I285
sS'rstem'
p5
I844
ssS'com.typemytype.robofont.layerData'
p6
(dp7
sS'org.robofab.postScriptHintData'
p8
(dp9
s."
AnchorPoint: "bot" 565 0 basechar 0
AnchorPoint: "top" 565 1455 basechar 0
LayerCount: 2
Fore
SplineSet
35 1455 m 257
 35 1366 l 257
 501 1366 l 257
 501 0 l 257
 622 0 l 257
 622 1366 l 257
 1093 1366 l 257
 1093 1455 l 257
 35 1455 l 257
EndSplineSet
EndChar

StartChar: Thorn
Encoding: 157 222 105
Width: 1194
VWidth: 0
GlyphClass: 2
Flags: W
PickledData: "(dp1
S'org.pippin.gimp.org.kernagic'
p2
(dp3
S'lstem'
p4
I0
sS'rstem'
p5
I0
ssS'com.typemytype.robofont.layerData'
p6
(dp7
S'b'
(dp8
S'name'
p9
S'Thorn'
p10
sS'lib'
p11
(dp12
sS'unicodes'
p13
(tsS'width'
p14
I1192
sS'contours'
p15
(tsS'components'
p16
(tsS'anchors'
p17
(tsssS'org.robofab.postScriptHintData'
p18
(dp19
s."
LayerCount: 2
Fore
SplineSet
211 0 m 257
 333 0 l 257
 333 442 l 257
 626 442 l 258
 934 442 1063 568 1063 819 c 256
 1063 1064 884 1158 631 1158 c 258
 332 1158 l 257
 332 1471 l 257
 211 1471 l 257
 211 0 l 257
332 1065 m 257
 628 1065 l 258
 813 1065 941 1012 941 820 c 256
 941 597 847 535 633 535 c 258
 332 535 l 257
 332 1065 l 257
EndSplineSet
EndChar

StartChar: U
Encoding: 53 85 106
Width: 1451
VWidth: 0
GlyphClass: 2
Flags: W
PickledData: "(dp1
S'org.pippin.gimp.org.kernagic'
p2
(dp3
S'lstem'
p4
I0
sS'rstem'
p5
I0
ssS'com.typemytype.robofont.layerData'
p6
(dp7
sS'org.robofab.postScriptHintData'
p8
(dp9
s."
AnchorPoint: "bot" 723 0 basechar 0
AnchorPoint: "top" 729 1455 basechar 0
LayerCount: 2
Fore
SplineSet
1154 1456 m 257
 1154 539 l 258
 1154 241 1019 78 725 78 c 256
 415 78 296 242 296 539 c 258
 296 1456 l 257
 174 1456 l 257
 174 543 l 258
 174 219 328 -19 725 -19 c 256
 1118 -19 1276 227 1276 539 c 258
 1276 1456 l 257
 1154 1456 l 257
EndSplineSet
EndChar

StartChar: V
Encoding: 54 86 117
Width: 1379
VWidth: 0
GlyphClass: 2
Flags: W
PickledData: "(dp1
S'org.pippin.gimp.org.kernagic'
p2
(dp3
S'lstem'
p4
I0
sS'rstem'
p5
I0
ssS'com.typemytype.robofont.layerData'
p6
(dp7
sS'org.robofab.postScriptHintData'
p8
(dp9
s."
LayerCount: 2
Fore
SplineSet
651 0 m 257
 724 0 l 257
 1302 1455 l 257
 1177 1455 l 257
 1014 1028 850 600 686 174 c 257
 522 599 361 1028 199 1455 c 257
 77 1455 l 257
 651 0 l 257
EndSplineSet
EndChar

StartChar: W
Encoding: 55 87 118
Width: 2044
VWidth: 0
GlyphClass: 2
Flags: W
PickledData: "(dp1
S'org.pippin.gimp.org.kernagic'
p2
(dp3
S'lstem'
p4
I0
sS'rstem'
p5
I0
ssS'com.typemytype.robofont.layerData'
p6
(dp7
sS'org.robofab.postScriptHintData'
p8
(dp9
s."
AnchorPoint: "bot" 1026 0 basechar 0
AnchorPoint: "top" 1027 1455 basechar 0
LayerCount: 2
Fore
SplineSet
1029 1285 m 257
 1420 0 l 257
 1542 0 l 257
 1972 1455 l 257
 1856 1455 l 257
 1482 150 l 257
 1090 1414 l 257
 964 1414 l 257
 576 154 l 257
 179 1455 l 257
 72 1455 l 257
 515 0 l 257
 633 0 l 257
 1029 1285 l 257
EndSplineSet
EndChar

StartChar: X
Encoding: 56 88 123
Width: 1296
VWidth: 0
GlyphClass: 2
Flags: W
PickledData: "(dp1
S'org.pippin.gimp.org.kernagic'
p2
(dp3
S'lstem'
p4
I0
sS'rstem'
p5
I0
ssS'com.typemytype.robofont.layerData'
p6
(dp7
sS'org.robofab.postScriptHintData'
p8
(dp9
s."
LayerCount: 2
Fore
SplineSet
709 725 m 257
 1185 1455 l 257
 1060 1455 l 257
 649 815 l 257
 228 1455 l 257
 103 1455 l 257
 580 731 l 257
 92 0 l 257
 216 0 l 257
 642 638 l 257
 1062 0 l 257
 1186 0 l 257
 709 725 l 257
EndSplineSet
EndChar

StartChar: Y
Encoding: 57 89 124
Width: 1264
VWidth: 0
GlyphClass: 2
Flags: W
PickledData: "(dp1
S'org.pippin.gimp.org.kernagic'
p2
(dp3
S'lstem'
p4
I0
sS'rstem'
p5
I0
ssS'com.typemytype.robofont.layerData'
p6
(dp7
sS'org.robofab.postScriptHintData'
p8
(dp9
s."
AnchorPoint: "top" 632 1455 basechar 0
LayerCount: 2
Fore
SplineSet
706 575 m 257
 1191 1455 l 257
 1077 1455 l 257
 646 675 l 257
 180 1455 l 257
 72 1455 l 257
 588 575 l 257
 588 0 l 257
 706 0 l 257
 706 575 l 257
EndSplineSet
EndChar

StartChar: Z
Encoding: 58 90 129
Width: 1195
VWidth: 0
GlyphClass: 2
Flags: W
PickledData: "(dp1
S'org.pippin.gimp.org.kernagic'
p2
(dp3
S'lstem'
p4
I0
sS'rstem'
p5
I0
ssS'com.typemytype.robofont.layerData'
p6
(dp7
sS'org.robofab.postScriptHintData'
p8
(dp9
s."
AnchorPoint: "bot" 647 0 basechar 0
AnchorPoint: "top" 664 1455 basechar 0
LayerCount: 2
Fore
SplineSet
125 0 m 257
 1090 0 l 257
 1101 95 l 257
 244 95 l 257
 1094 1365 l 257
 1084 1455 l 257
 169 1455 l 257
 169 1360 l 257
 968 1360 l 257
 125 101 l 257
 125 0 l 257
EndSplineSet
EndChar

StartChar: a
Encoding: 65 97 133
Width: 1116
VWidth: 0
GlyphClass: 2
Flags: W
PickledData: "(dp1
S'org.pippin.gimp.org.kernagic'
p2
(dp3
S'lstem'
p4
I0
sS'rstem'
p5
I0
ssS'org.robofab.postScriptHintData'
p6
(dp7
sS'com.typemytype.robofont.guides'
p8
(tsS'com.typemytype.robofont.layerData'
p9
(dp10
sS'com.fontlab.hintData'
p11
(dp12
S'vhints'
p13
((dp14
S'position'
p15
I126
sS'width'
p16
I120
s(dp17
g15
I842
sg16
I32
s(dp18
g15
I875
sg16
I86
stp19
sS'hhints'
p20
((dp21
g15
I-15
sg16
I92
s(dp22
g15
I535
sg16
I82
s(dp23
g15
I983
sg16
I92
stp24
ss."
HStem: -15 92 535 82 983 92
VStem: 126 120 842 32 875 86
AnchorPoint: "bot" 524 0 basechar 0
AnchorPoint: "top" 549 1082 basechar 0
LayerCount: 2
Fore
SplineSet
471 76 m 256
 343 76 237 132 237 283 c 256
 237 435 300 520 610 520 c 258
 621 520 l 257
 825 518 l 257
 825 259 l 257
 724 124 604 76 471 76 c 256
117 283 m 256
 117 86 257 -16 461 -16 c 256
 593 -16 723 22 836 165 c 257
 850 1 l 257
 944 1 l 257
 944 725 l 258
 944 1008 784 1104 545 1104 c 256
 416 1104 258 1066 171 1011 c 257
 213 918 l 257
 309 980 441 1011 549 1011 c 256
 732 1011 825 921 825 741 c 258
 825 601 l 257
 610 604 l 257
 592 604 l 258
 248 604 117 489 117 283 c 256
EndSplineSet
Substitution2: "Single Substitution lookup 3 subtable" ordfeminine
EndChar

StartChar: acute
Encoding: 115 180 137
Width: 695
VWidth: 0
GlyphClass: 4
Flags: W
PickledData: "(dp1
S'org.robofab.postScriptHintData'
p2
(dp3
sS'com.typemytype.robofont.layerData'
p4
(dp5
s."
AnchorPoint: "top" 270 1082 mark 0
LayerCount: 2
Fore
SplineSet
231 1210 m 257
 305 1210 l 257
 581 1569 l 257
 440 1569 l 257
 231 1210 l 257
EndSplineSet
EndChar

StartChar: ae
Encoding: 165 230 139
Width: 1750
VWidth: 0
GlyphClass: 2
Flags: W
PickledData: "(dp1
S'org.pippin.gimp.org.kernagic'
p2
(dp3
S'lstem'
p4
I0
sS'rstem'
p5
I0
ssS'com.fontlab.hintData'
p6
(dp7
S'vhints'
p8
((dp9
S'position'
p10
I126
sS'width'
p11
I119
s(dp12
g10
I817
sg11
I117
s(dp13
g10
I817
sg11
I82
s(dp14
g10
I1556
sg11
I98
stp15
sS'hhints'
p16
((dp17
g10
I-14
sg11
I98
s(dp18
g10
I518
sg11
I82
s(dp19
g10
I983
sg11
I92
stp20
ssS'com.typemytype.robofont.layerData'
p21
(dp22
sS'org.robofab.postScriptHintData'
p23
(dp24
s."
HStem: -14 98 518 82 983 92
VStem: 126 119 817 117 817 82 1556 98
AnchorPoint: "top" 910 1082 basechar 0
LayerCount: 2
Fore
SplineSet
1267 1005 m 256
 1440 1005 1525 900 1525 798 c 256
 1525 669 1427 599 1061 599 c 256
 1017 599 969 600 918 602 c 257
 938 835 1053 1005 1267 1005 c 256
455 83 m 256
 335 83 226 142 226 303 c 256
 226 446 293 530 595 530 c 256
 614 530 767 528 801 524 c 257
 801 514 l 258
 801 459 808 351 828 303 c 257
 771 167 610 83 455 83 c 256
1634 803 m 256
 1634 963 1502 1101 1265 1101 c 256
 1102 1101 934 1018 884 836 c 257
 863 1032 719 1102 525 1102 c 256
 388 1102 251 1061 150 999 c 257
 198 915 l 257
 309 983 443 1009 548 1009 c 258
 551 1009 l 258
 730 1009 802 918 802 740 c 258
 802 608 l 257
 766 612 591 614 570 614 c 256
 226 614 105 491 105 293 c 256
 105 73 250 -12 427 -16 c 256
 597 -16 798 59 886 198 c 257
 963 57 1104 -19 1278 -19 c 256
 1427 -19 1538 20 1637 76 c 257
 1598 158 l 257
 1480 99 1406 75 1296 75 c 256
 1084 75 927 200 915 518 c 257
 975 517 1032 516 1084 516 c 256
 1458 516 1634 561 1634 803 c 256
EndSplineSet
EndChar

StartChar: ampersand
Encoding: 6 38 144
Width: 1467
VWidth: 0
GlyphClass: 2
Flags: W
PickledData: "(dp1
S'org.pippin.gimp.org.kernagic'
p2
(dp3
S'lstem'
p4
I0
sS'rstem'
p5
I0
ssS'com.fontlab.hintData'
p6
(dp7
S'vhints'
p8
((dp9
S'position'
p10
I135
sS'width'
p11
I121
s(dp12
g10
I312
sg11
I105
s(dp13
g10
I917
sg11
I110
stp14
sS'hhints'
p15
((dp16
g10
I-19
sg11
I96
s(dp17
g10
I1372
sg11
I96
stp18
ssS'com.typemytype.robofont.layerData'
p19
(dp20
sS'org.robofab.postScriptHintData'
p21
(dp22
s."
HStem: -19 96 1372 96
VStem: 135 121 312 105 917 110
LayerCount: 2
Fore
SplineSet
658 1388 m 256
 804 1388 893 1303 893 1170 c 256
 893 1013 727 918 558 838 c 257
 414 997 380 1063 380 1170 c 256
 380 1300 494 1388 658 1388 c 256
165 371 m 256
 165 126 334 -19 645 -19 c 256
 817 -19 961 53 1076 156 c 257
 1246 -24 l 257
 1312 43 l 257
 1142 222 l 257
 1240 328 1313 454 1361 565 c 257
 1290 615 l 257
 1227 480 1158 370 1082 285 c 257
 618 774 l 257
 822 868 991 982 991 1166 c 256
 991 1358 856 1475 660 1475 c 256
 435 1475 284 1351 284 1168 c 256
 284 1041 336 947 470 797 c 257
 272 685 165 557 165 371 c 256
663 73 m 256
 412 73 278 181 278 377 c 256
 278 527 366 634 535 730 c 257
 1017 219 l 257
 909 122 791 73 663 73 c 256
EndSplineSet
EndChar

StartChar: uni02BC
Encoding: 65538 700 146
Width: 642
VWidth: 0
Flags: W
PickledData: "(dp1
S'org.robofab.postScriptHintData'
p2
(dp3
sS'com.typemytype.robofont.layerData'
p4
(dp5
s."
LayerCount: 2
Fore
SplineSet
154 1190 m 257
 235 1190 l 257
 235 1190 349 1576 355 1608 c 257
 227 1608 l 257
 225 1592 154 1190 154 1190 c 257
EndSplineSet
EndChar

StartChar: approxequal
Encoding: 477 8776 147
Width: 1240
VWidth: 0
GlyphClass: 2
Flags: W
PickledData: "(dp1
S'org.pippin.gimp.org.kernagic'
p2
(dp3
S'lstem'
p4
I0
sS'rstem'
p5
I0
ssS'com.typemytype.robofont.layerData'
p6
(dp7
S'b'
(dp8
S'name'
p9
S'approxequal'
p10
sS'lib'
p11
(dp12
sS'unicodes'
p13
(tsS'width'
p14
I1136
sS'contours'
p15
(tsS'components'
p16
(tsS'anchors'
p17
(tsssS'org.robofab.postScriptHintData'
p18
(dp19
s."
LayerCount: 2
Fore
SplineSet
900 545 m 256
 835 545 748 583 647 630 c 256
 538 681 451 715 367 715 c 256
 254 715 174 647 138 512 c 257
 183 465 l 257
 214 579 284 635 369 635 c 256
 440 635 522 600 614 557 c 256
 726 503 824 467 903 467 c 256
 1013 467 1081 533 1103 669 c 257
 1057 713 l 257
 1042 603 981 545 900 545 c 256
900 899 m 256
 835 899 748 937 647 984 c 256
 538 1035 451 1069 367 1069 c 256
 254 1069 174 1001 138 866 c 257
 183 819 l 257
 214 933 284 989 369 989 c 256
 440 989 522 954 614 911 c 256
 726 857 824 821 903 821 c 256
 1013 821 1081 887 1103 1023 c 257
 1057 1067 l 257
 1042 957 981 899 900 899 c 256
EndSplineSet
EndChar

StartChar: asciicircum
Encoding: 62 94 150
Width: 1258
VWidth: 0
GlyphClass: 2
Flags: W
PickledData: "(dp1
S'org.pippin.gimp.org.kernagic'
p2
(dp3
S'lstem'
p4
I0
sS'rstem'
p5
I0
ssS'com.typemytype.robofont.layerData'
p6
(dp7
sS'org.robofab.postScriptHintData'
p8
(dp9
s."
LayerCount: 2
Fore
SplineSet
589 1456 m 257
 134 337 l 257
 234 337 l 257
 625 1313 l 257
 1022 337 l 257
 1124 337 l 257
 657 1456 l 257
 589 1456 l 257
EndSplineSet
EndChar

StartChar: asciitilde
Encoding: 94 126 151
Width: 1208
VWidth: 0
GlyphClass: 2
Flags: W
PickledData: "(dp1
S'org.pippin.gimp.org.kernagic'
p2
(dp3
S'lstem'
p4
I0
sS'rstem'
p5
I0
ssS'com.typemytype.robofont.layerData'
p6
(dp7
S'b'
(dp8
S'name'
p9
S'asciitilde'
p10
sS'lib'
p11
(dp12
sS'unicodes'
p13
(tsS'width'
p14
I1192
sS'contours'
p15
(tsS'components'
p16
(tsS'anchors'
p17
(tsssS'org.robofab.postScriptHintData'
p18
(dp19
s."
LayerCount: 2
Fore
SplineSet
117 507 m 257
 166 601 256 676 347 676 c 256
 418 676 502 637 621 585 c 256
 699 550 773 522 833 522 c 256
 948 522 1007 591 1055 725 c 257
 1023 789 l 257
 1002 706 915 619 829 619 c 256
 766 619 679 665 578 707 c 256
 471 755 425 776 347 776 c 256
 227 776 139 692 95 580 c 257
 117 507 l 257
EndSplineSet
EndChar

StartChar: asterisk
Encoding: 10 42 152
Width: 1109
VWidth: 0
GlyphClass: 2
Flags: W
PickledData: "(dp1
S'org.pippin.gimp.org.kernagic'
p2
(dp3
S'lstem'
p4
I0
sS'rstem'
p5
I0
ssS'com.typemytype.robofont.layerData'
p6
(dp7
sS'org.robofab.postScriptHintData'
p8
(dp9
s."
LayerCount: 2
Fore
SplineSet
350 602 m 257
 549 978 l 257
 763 603 l 257
 847 656 781 621 866 674 c 257
 728 850 650 961 610 1016 c 257
 984 1100 l 257
 949 1222 l 257
 585 1070 l 257
 624 1482 l 257
 487 1482 l 257
 524 1070 l 257
 161 1222 l 257
 129 1100 l 257
 495 1016 l 257
 249 674 l 257
 350 602 l 257
EndSplineSet
EndChar

StartChar: at
Encoding: 32 64 153
Width: 2062
VWidth: 0
GlyphClass: 2
Flags: HW
PickledData: "(dp1
S'org.pippin.gimp.org.kernagic'
p2
(dp3
S'lstem'
p4
I0
sS'rstem'
p5
I0
ssS'com.typemytype.robofont.layerData'
p6
(dp7
sS'org.robofab.postScriptHintData'
p8
(dp9
s."
LayerCount: 2
Fore
SplineSet
949 285 m 256
 823 285 747 377 747 568 c 256
 747 827 890 1001 1096 1001 c 256
 1131 1001 1212 988 1268 975 c 257
 1217 684 l 257
 1182 474 1109 285 949 285 c 256
1005 -234 m 256
 1206 -234 1392 -184 1528 -93 c 257
 1493 -16 l 257
 1354 -103 1183 -143 1010 -143 c 256
 590 -143 299 127 299 596 c 256
 299 1068 631 1406 1073 1406 c 256
 1489 1406 1758 1136 1758 748 c 256
 1758 492 1638 297 1480 297 c 256
 1375 297 1324 385 1324 485 c 256
 1324 616 1345 754 1389 1019 c 257
 1299 1053 1186 1083 1085 1083 c 256
 794 1083 634 841 634 561 c 256
 634 335 749 194 934 194 c 256
 1086 194 1190 312 1244 469 c 257
 1266 284 1384.47513413 213 1480 213 c 263
 1660 213 1855 390 1855 745 c 256
 1855 1210 1522 1498 1076 1498 c 256
 557 1498 187 1115 187 596 c 256
 187 76 510 -234 1005 -234 c 256
EndSplineSet
EndChar

StartChar: b
Encoding: 66 98 155
Width: 1227
VWidth: 0
GlyphClass: 2
Flags: W
PickledData: "(dp1
S'org.pippin.gimp.org.kernagic'
p2
(dp3
S'lstem'
p4
I0
sS'rstem'
p5
I0
ssS'org.robofab.postScriptHintData'
p6
(dp7
sS'com.typemytype.robofont.guides'
p8
(tsS'com.typemytype.robofont.layerData'
p9
(dp10
sS'com.fontlab.hintData'
p11
(dp12
S'vhints'
p13
((dp14
S'position'
p15
I193
sS'width'
p16
I125
s(dp17
g15
I193
sg16
I94
s(dp18
g15
I1018
sg16
I122
stp19
sS'hhints'
p20
((dp21
g15
I-19
sg16
I92
s(dp22
g15
I982
sg16
I92
stp23
ss."
HStem: -19 92 982 92
VStem: 193 125 193 94 1018 122
AnchorPoint: "top" 669 1082 basechar 0
LayerCount: 2
Fore
SplineSet
640 72 m 256
 461 72 355 160 297 275 c 257
 297 575 l 257
 296 834 432 1012 650 1012 c 256
 907 1012 986 799 986 538 c 256
 986 271 886 72 640 72 c 256
662 1104 m 256
 512 1104 374 1031 299 870 c 257
 301 1084 l 257
 301 1560 l 257
 180 1540 l 257
 180 0 l 257
 270 0 l 257
 281 158 l 257
 345 63 459 -20 642 -20 c 256
 942 -20 1109 206 1109 537 c 256
 1109 881 960 1104 662 1104 c 256
EndSplineSet
EndChar

StartChar: backslash
Encoding: 60 92 156
Width: 964
VWidth: 0
GlyphClass: 2
Flags: W
PickledData: "(dp1
S'org.pippin.gimp.org.kernagic'
p2
(dp3
S'lstem'
p4
I0
sS'rstem'
p5
I0
ssS'com.typemytype.robofont.layerData'
p6
(dp7
S'b'
(dp8
S'name'
p9
S'backslash'
p10
sS'lib'
p11
(dp12
sS'unicodes'
p13
(tsS'width'
p14
I937
sS'contours'
p15
(tsS'components'
p16
(tsS'anchors'
p17
(tsssS'org.robofab.postScriptHintData'
p18
(dp19
s."
LayerCount: 2
Fore
SplineSet
703 -51 m 257
 787 -51 l 257
 208 1465 l 257
 125 1465 l 257
 703 -51 l 257
EndSplineSet
EndChar

StartChar: bar
Encoding: 92 124 157
Width: 360
VWidth: 0
GlyphClass: 2
Flags: W
PickledData: "(dp1
S'org.pippin.gimp.org.kernagic'
p2
(dp3
S'lstem'
p4
I0
sS'rstem'
p5
I0
ssS'com.typemytype.robofont.layerData'
p6
(dp7
S'b'
(dp8
S'name'
p9
S'bar'
p10
sS'lib'
p11
(dp12
sS'unicodes'
p13
(tsS'width'
p14
I681
sS'contours'
p15
(tsS'components'
p16
(tsS'anchors'
p17
(tsssS'org.robofab.postScriptHintData'
p18
(dp19
s."
LayerCount: 2
Fore
SplineSet
123 1529 m 257
 123 -364 l 257
 218 -364 l 257
 218 1529 l 257
 123 1529 l 257
EndSplineSet
EndChar

StartChar: braceleft
Encoding: 91 123 158
Width: 837
VWidth: 0
GlyphClass: 2
Flags: W
PickledData: "(dp1
S'org.pippin.gimp.org.kernagic'
p2
(dp3
S'lstem'
p4
I0
sS'rstem'
p5
I0
ssS'com.typemytype.robofont.layerData'
p6
(dp7
sS'org.robofab.postScriptHintData'
p8
(dp9
s."
LayerCount: 2
Fore
SplineSet
661 -274 m 257
 661 -193 l 257
 509 -191 475 -144 475 58 c 258
 475 323 l 258
 475 499 444 587 290 609 c 257
 444 631 475 719 475 895 c 258
 475 1160 l 258
 475 1363 514 1410 666 1411 c 257
 666 1493 l 257
 413 1493 359 1413 359 1167 c 258
 359 957 l 258
 359 752 353 653 150 651 c 257
 150 567 l 257
 354 565 359 466 359 261 c 258
 359 52 l 258
 359 -194 408 -274 661 -274 c 257
EndSplineSet
EndChar

StartChar: braceright
Encoding: 93 125 159
Width: 837
VWidth: 0
GlyphClass: 2
Flags: W
PickledData: "(dp1
S'org.pippin.gimp.org.kernagic'
p2
(dp3
S'lstem'
p4
I0
sS'rstem'
p5
I0
ssS'com.typemytype.robofont.layerData'
p6
(dp7
sS'org.robofab.postScriptHintData'
p8
(dp9
s."
LayerCount: 2
Fore
SplineSet
127 -274 m 257
 380 -274 429 -194 429 52 c 258
 429 261 l 258
 429 466 433 565 638 567 c 257
 638 651 l 257
 435 653 429 752 429 957 c 258
 429 1167 l 258
 429 1413 375 1493 122 1493 c 257
 122 1411 l 257
 274 1410 312 1363 312 1160 c 258
 312 895 l 258
 312 719 344 631 498 609 c 257
 344 587 312 499 312 323 c 258
 312 58 l 258
 312 -144 279 -191 127 -193 c 257
 127 -274 l 257
EndSplineSet
EndChar

StartChar: bracketleft
Encoding: 59 91 160
Width: 699
VWidth: 0
GlyphClass: 2
Flags: W
PickledData: "(dp1
S'org.pippin.gimp.org.kernagic'
p2
(dp3
S'lstem'
p4
I0
sS'rstem'
p5
I0
ssS'com.typemytype.robofont.layerData'
p6
(dp7
sS'org.robofab.postScriptHintData'
p8
(dp9
s."
LayerCount: 2
Fore
SplineSet
194 -236 m 257
 633 -236 l 257
 633 -149 l 257
 313 -149 l 257
 313 1437 l 257
 633 1437 l 257
 633 1526 l 257
 194 1526 l 257
 194 -236 l 257
EndSplineSet
EndChar

StartChar: bracketright
Encoding: 61 93 161
Width: 758
VWidth: 0
GlyphClass: 2
Flags: W
PickledData: "(dp1
S'org.pippin.gimp.org.kernagic'
p2
(dp3
S'lstem'
p4
I0
sS'rstem'
p5
I0
ssS'com.typemytype.robofont.layerData'
p6
(dp7
sS'org.robofab.postScriptHintData'
p8
(dp9
s."
LayerCount: 2
Fore
SplineSet
144 -236 m 257
 581 -236 l 257
 581 1526 l 257
 144 1526 l 257
 144 1437 l 257
 463 1437 l 257
 463 -149 l 257
 144 -149 l 257
 144 -236 l 257
EndSplineSet
EndChar

StartChar: breve
Encoding: 401 728 162
Width: 837
VWidth: 0
GlyphClass: 4
Flags: W
PickledData: "(dp1
S'org.robofab.postScriptHintData'
p2
(dp3
sS'com.typemytype.robofont.layerData'
p4
(dp5
s."
AnchorPoint: "top" 415 1057 mark 0
LayerCount: 2
Fore
SplineSet
410 1269 m 256
 523 1269 627 1334 627 1495 c 257
 555 1495 l 257
 555 1385 472 1341 410 1341 c 256
 348 1341 272 1385 272 1495 c 257
 198 1495 l 257
 198 1333 297 1269 410 1269 c 256
EndSplineSet
EndChar

StartChar: uni0311
Encoding: 409 785 163
Width: 752
VWidth: 0
Flags: W
PickledData: "(dp1
S'org.robofab.postScriptHintData'
p2
(dp3
sS'com.typemytype.robofont.layerData'
p4
(dp5
s."
AnchorPoint: "top" 391 1057 mark 0
LayerCount: 2
Fore
SplineSet
173 1269 m 257
 246 1269 l 257
 246 1379 323 1423 384 1423 c 256
 447 1423 530 1379 530 1269 c 257
 601 1269 l 257
 601 1430 498 1495 384 1495 c 256
 272 1495 173 1431 173 1269 c 257
EndSplineSet
EndChar

StartChar: brokenbar
Encoding: 101 166 164
Width: 297
VWidth: 0
GlyphClass: 2
Flags: W
PickledData: "(dp1
S'org.pippin.gimp.org.kernagic'
p2
(dp3
S'lstem'
p4
I0
sS'rstem'
p5
I0
ssS'com.typemytype.robofont.layerData'
p6
(dp7
S'b'
(dp8
S'name'
p9
S'brokenbar'
p10
sS'lib'
p11
(dp12
sS'unicodes'
p13
(tsS'width'
p14
I653
sS'contours'
p15
(tsS'components'
p16
(tsS'anchors'
p17
(tsssS'org.robofab.postScriptHintData'
p18
(dp19
s."
LayerCount: 2
Fore
SplineSet
101 1504 m 257
 101 802 l 257
 187 802 l 257
 187 1504 l 257
 101 1504 l 257
101 546 m 257
 101 -159 l 257
 187 -159 l 257
 187 546 l 257
 101 546 l 257
EndSplineSet
EndChar

StartChar: bullet
Encoding: 454 8226 165
Width: 845
VWidth: 0
GlyphClass: 2
Flags: W
PickledData: "(dp1
S'org.pippin.gimp.org.kernagic'
p2
(dp3
S'lstem'
p4
I0
sS'rstem'
p5
I0
ssS'com.typemytype.robofont.layerData'
p6
(dp7
S'b'
(dp8
S'name'
p9
S'bullet'
p10
sS'lib'
p11
(dp12
sS'unicodes'
p13
(tsS'width'
p14
I908
sS'contours'
p15
(tsS'components'
p16
(tsS'anchors'
p17
(tsssS'org.robofab.postScriptHintData'
p18
(dp19
s."
LayerCount: 2
Fore
SplineSet
411 444 m 256
 564 444 720 552 720 767 c 256
 720 982 569 1090 417 1090 c 256
 264 1090 111 980 111 763 c 256
 111 550 260 444 411 444 c 256
EndSplineSet
EndChar

StartChar: c
Encoding: 67 99 166
Width: 1081
VWidth: 0
GlyphClass: 2
Flags: W
PickledData: "(dp1
S'org.pippin.gimp.org.kernagic'
p2
(dp3
S'lstem'
p4
I0
sS'rstem'
p5
I696
ssS'org.robofab.postScriptHintData'
p6
(dp7
sS'com.typemytype.robofont.guides'
p8
((dp9
S'y'
I417
sS'x'
I962
sS'magnetic'
p10
I5
sS'angle'
p11
F90
sS'isGlobal'
p12
I00
s(dp13
S'y'
I1020
sS'x'
I565
sg10
I5
sg11
F90
sg12
I00
s(dp14
S'y'
I994
sS'x'
I572
sg10
I5
sg11
F90
sg12
I00
stp15
sS'com.typemytype.robofont.layerData'
p16
(dp17
sS'com.fontlab.hintData'
p18
(dp19
S'vhints'
p20
((dp21
S'position'
p22
I128
sS'width'
p23
I120
stp24
sS'hhints'
p25
((dp26
g22
I-19
sg23
I92
s(dp27
g22
I982
sg23
I92
stp28
ss."
HStem: -19 92 982 92
VStem: 128 120
AnchorPoint: "bot" 606 0 basechar 0
AnchorPoint: "top" 614 1082 basechar 0
LayerCount: 2
Fore
SplineSet
894 262 m 257
 851 147 744 71 598 71 c 256
 369 71 242 251 242 542 c 256
 242 832 369 1012 598 1012 c 256
 744 1012 852 936 894 820 c 257
 910 820 l 257
 981 857 l 257
 940 994 804 1104 596 1104 c 256
 301 1104 118 887 118 542 c 256
 118 197 301 -20 596 -20 c 256
 804 -20 941 90 981 227 c 257
 911 262 l 257
 894 262 l 257
EndSplineSet
EndChar

StartChar: caron
Encoding: 399 711 168
Width: 864
VWidth: 0
GlyphClass: 4
Flags: W
PickledData: "(dp1
S'org.robofab.postScriptHintData'
p2
(dp3
sS'com.typemytype.robofont.layerData'
p4
(dp5
s."
AnchorPoint: "top" 430 1082 mark 0
LayerCount: 2
Fore
SplineSet
354 1215 m 257
 482 1215 l 257
 670 1533 l 257
 579 1533 l 257
 419 1293 l 257
 257 1533 l 257
 166 1533 l 257
 354 1215 l 257
EndSplineSet
EndChar

StartChar: caron.alt
Encoding: 65539 -1 169
Width: 806
VWidth: 0
GlyphClass: 4
Flags: W
PickledData: "(dp1
S'org.robofab.postScriptHintData'
p2
(dp3
sS'com.typemytype.robofont.layerData'
p4
(dp5
s."
AnchorPoint: "caron.alt" 329 1082 mark 0
LayerCount: 2
Fore
SplineSet
532 1182 m 257
 626 1182 l 257
 714 1533 l 257
 585 1533 l 257
 532 1182 l 257
EndSplineSet
EndChar

StartChar: cedilla
Encoding: 119 184 174
Width: 643
VWidth: 0
GlyphClass: 4
Flags: W
PickledData: "(dp1
S'org.robofab.postScriptHintData'
p2
(dp3
sS'com.typemytype.robofont.layerData'
p4
(dp5
s."
AnchorPoint: "bot" 336 4 mark 0
LayerCount: 2
Fore
SplineSet
471 -199 m 256
 471 -289 389 -330 302 -330 c 256
 257 -330 211 -319 172 -298 c 257
 148 -360 l 257
 194 -381 244 -392 299 -392 c 256
 444 -392 548 -317 548 -200 c 256
 548 -93 469 -42 378 -42 c 256
 346 -42 313 -48 281 -60 c 257
 282 -100 l 257
 308 -95 330 -93 349 -93 c 256
 449 -93 471 -153 471 -199 c 256
EndSplineSet
EndChar

StartChar: cent
Encoding: 97 162 175
Width: 1038
VWidth: 0
GlyphClass: 2
Flags: W
PickledData: "(dp1
S'org.pippin.gimp.org.kernagic'
p2
(dp3
S'lstem'
p4
I0
sS'rstem'
p5
I0
ssS'com.typemytype.robofont.layerData'
p6
(dp7
sS'org.robofab.postScriptHintData'
p8
(dp9
s."
LayerCount: 2
Fore
SplineSet
542 22 m 257
 542 -296 l 257
 635 -296 l 257
 643 22 l 257
 542 22 l 257
547 1380 m 257
 542 1063 l 257
 638 1063 l 257
 638 1380 l 257
 547 1380 l 257
EndSplineSet
Refer: 166 99 N 1 0 0 1 0 0 2
EndChar

StartChar: circumflex
Encoding: 398 710 176
Width: 859
VWidth: 0
GlyphClass: 4
Flags: W
PickledData: "(dp1
S'org.robofab.postScriptHintData'
p2
(dp3
sS'com.typemytype.robofont.layerData'
p4
(dp5
s."
AnchorPoint: "top" 426 1082 mark 0
LayerCount: 2
Fore
SplineSet
166 1219 m 257
 257 1219 l 257
 418 1460 l 257
 579 1219 l 257
 669 1219 l 257
 482 1538 l 257
 353 1538 l 257
 166 1219 l 257
EndSplineSet
EndChar

StartChar: colon
Encoding: 26 58 177
Width: 540
VWidth: 0
GlyphClass: 2
Flags: W
PickledData: "(dp1
S'org.pippin.gimp.org.kernagic'
p2
(dp3
S'lstem'
p4
I0
sS'rstem'
p5
I0
ssS'com.typemytype.robofont.layerData'
p6
(dp7
S'b'
(dp8
S'name'
p9
S'colon'
p10
sS'lib'
p11
(dp12
sS'unicodes'
p13
(tsS'width'
p14
I653
sS'contours'
p15
(tsS'components'
p16
(tsS'anchors'
p17
(tsssS'org.robofab.postScriptHintData'
p18
(dp19
s."
LayerCount: 2
Fore
SplineSet
260 -16 m 256
 331 -16 351 34 351 80 c 256
 351 123 331 175 260 175 c 256
 186 175 166 123 166 80 c 256
 166 35 188 -16 260 -16 c 256
260 873 m 256
 331 873 351 924 351 969 c 256
 351 1013 331 1064 260 1064 c 256
 186 1064 166 1013 166 969 c 256
 166 924 188 873 260 873 c 256
EndSplineSet
EndChar

StartChar: comma
Encoding: 12 44 178
Width: 518
VWidth: 0
GlyphClass: 2
Flags: W
PickledData: "(dp1
S'org.pippin.gimp.org.kernagic'
p2
(dp3
S'lstem'
p4
I0
sS'rstem'
p5
I0
ssS'com.typemytype.robofont.layerData'
p6
(dp7
sS'org.robofab.postScriptHintData'
p8
(dp9
s."
LayerCount: 2
Fore
SplineSet
171 -296 m 257
 230 -296 l 257
 230 -296 323 132 323 162 c 258
 323 211 l 257
 189 211 l 257
 189 136 171 -296 171 -296 c 257
EndSplineSet
EndChar

StartChar: uni0326
Encoding: 411 806 179
Width: 604
VWidth: 0
Flags: W
PickledData: "(dp1
S'org.robofab.postScriptHintData'
p2
(dp3
s."
AnchorPoint: "bot" 319 0 mark 0
LayerCount: 2
Fore
SplineSet
233 -506 m 257
 299 -506 l 257
 299 -506 374 -217 372 -153 c 257
 258 -153 l 257
 258 -258 233 -506 233 -506 c 257
EndSplineSet
EndChar

StartChar: uni0312
Encoding: 410 786 180
Width: 600
VWidth: 0
Flags: W
PickledData: "(dp1
S'org.robofab.postScriptHintData'
p2
(dp3
s."
AnchorPoint: "top" 301 1057 mark 0
LayerCount: 2
Fore
SplineSet
227 1313 m 257
 226 1287 l 257
 365 1287 l 257
 365 1392 378 1780 378 1780 c 257
 314 1780 l 257
 314 1780 227 1358 227 1313 c 257
EndSplineSet
EndChar

StartChar: copyright
Encoding: 104 169 181
Width: 1865
VWidth: 0
GlyphClass: 2
Flags: W
PickledData: "(dp1
S'org.pippin.gimp.org.kernagic'
p2
(dp3
S'lstem'
p4
I0
sS'rstem'
p5
I0
ssS'com.typemytype.robofont.layerData'
p6
(dp7
sS'org.robofab.postScriptHintData'
p8
(dp9
s."
LayerCount: 2
Fore
SplineSet
892 -37 m 256
 1275 -37 1686 210 1686 749 c 256
 1686 1288 1275 1537 892 1537 c 256
 510 1537 106 1288 106 749 c 256
 106 210 510 -37 892 -37 c 256
892 33 m 256
 555 33 195 257 195 749 c 256
 195 1240 555 1465 892 1465 c 256
 1229 1465 1593 1240 1593 749 c 256
 1593 258 1229 33 892 33 c 256
926 229 m 256
 1021 229 1119 256 1212 315 c 257
 1185 389 l 257
 1089 331 1011 313 925 313 c 256
 710 313 529 479 529 755 c 256
 529 1002 710 1179 916 1179 c 256
 991 1179 1092 1152 1170 1089 c 257
 1208 1168 l 257
 1113 1233 1012 1264 914 1264 c 256
 651 1264 419 1046 419 748 c 256
 419 443 657 229 926 229 c 256
EndSplineSet
EndChar

StartChar: currency
Encoding: 99 164 182
Width: 1347
VWidth: 0
GlyphClass: 2
Flags: W
PickledData: "(dp1
S'org.pippin.gimp.org.kernagic'
p2
(dp3
S'lstem'
p4
I0
sS'rstem'
p5
I0
ssS'com.typemytype.robofont.layerData'
p6
(dp7
S'b'
(dp8
S'name'
p9
S'currency'
p10
sS'lib'
p11
(dp12
sS'unicodes'
p13
(tsS'width'
p14
I1164
sS'contours'
p15
(tsS'components'
p16
(tsS'anchors'
p17
(tsssS'org.robofab.postScriptHintData'
p18
(dp19
s."
LayerCount: 2
Fore
SplineSet
992 711 m 256
 992 528 873 369 662 369 c 256
 454 369 333 527 333 711 c 256
 333 894 454 1054 662 1054 c 256
 872 1054 992 893 992 711 c 256
933 1019 m 257
 860 1082 765 1119 662 1119 c 256
 559 1119 466 1086 390 1020 c 257
 208 1193 l 257
 160 1146 l 257
 345 967 l 257
 287 894 258 805 258 711 c 256
 258 616 287 530 345 455 c 257
 161 279 l 257
 208 228 l 257
 392 403 l 257
 466 338 558 305 662 305 c 256
 767 305 859 338 933 401 c 257
 1117 227 l 257
 1160 277 l 257
 979 455 l 257
 1037 526 1065 613 1065 711 c 256
 1065 801 1038 888 978 967 c 257
 1161 1143 l 257
 1117 1193 l 257
 933 1019 l 257
EndSplineSet
EndChar

StartChar: d
Encoding: 68 100 183
Width: 1220
VWidth: 0
GlyphClass: 2
Flags: W
PickledData: "(dp1
S'org.pippin.gimp.org.kernagic'
p2
(dp3
S'lstem'
p4
I0
sS'rstem'
p5
I0
ssS'com.fontlab.hintData'
p6
(dp7
S'vhints'
p8
((dp9
S'position'
p10
I114
sS'width'
p11
I166
s(dp12
g10
I907
sg11
I161
s(dp13
g10
I930
sg11
I138
stp14
sS'hhints'
p15
((dp16
g10
I-19
sg11
I127
s(dp17
g10
I953
sg11
I127
stp18
ssS'com.typemytype.robofont.layerData'
p19
(dp20
sS'org.robofab.postScriptHintData'
p21
(dp22
s."
HStem: -19 127 953 127
VStem: 114 166 907 161 930 138
AnchorPoint: "caron.alt" 1068 1134 basechar 0
AnchorPoint: "top" 576 1082 basechar 0
LayerCount: 2
Fore
SplineSet
589 72 m 256
 367 72 242 255 242 547 c 256
 242 832 371 1012 597 1012 c 256
 741 1012 864 944 927 807 c 257
 927 256 l 257
 868 140 742 72 589 72 c 256
924 1540 m 257
 924 1170 l 257
 931 942 l 257
 869 1040 755 1102 601 1102 c 258
 595 1102 l 257
 591 1102 l 258
 298 1102 118 885 118 547 c 256
 118 203 291 -20 585 -20 c 258
 587 -20 l 258
 728 -20 864 40 939 149 c 257
 948 0 l 257
 1047 0 l 257
 1047 1560 l 257
 924 1540 l 257
EndSplineSet
EndChar

StartChar: dagger
Encoding: 452 8224 184
Width: 990
VWidth: 0
GlyphClass: 2
Flags: W
PickledData: "(dp1
S'org.pippin.gimp.org.kernagic'
p2
(dp3
S'lstem'
p4
I0
sS'rstem'
p5
I0
ssS'com.typemytype.robofont.layerData'
p6
(dp7
S'b'
(dp8
S'name'
p9
S'dagger'
p10
sS'lib'
p11
(dp12
sS'unicodes'
p13
(tsS'width'
p14
I1050
sS'contours'
p15
(tsS'components'
p16
(tsS'anchors'
p17
(tsssS'org.robofab.postScriptHintData'
p18
(dp19
s."
LayerCount: 2
Fore
SplineSet
447 1469 m 257
 447 1071 l 257
 163 1071 l 257
 163 1011 l 257
 447 1011 l 257
 447 123 l 257
 520 123 l 257
 520 1011 l 257
 799 1011 l 257
 799 1071 l 257
 514 1071 l 257
 514 1469 l 257
 447 1469 l 257
EndSplineSet
EndChar

StartChar: daggerdbl
Encoding: 453 8225 185
Width: 1043
VWidth: 0
GlyphClass: 2
Flags: W
PickledData: "(dp1
S'org.pippin.gimp.org.kernagic'
p2
(dp3
S'lstem'
p4
I0
sS'rstem'
p5
I0
ssS'com.typemytype.robofont.layerData'
p6
(dp7
S'b'
(dp8
S'name'
p9
S'daggerdbl'
p10
sS'lib'
p11
(dp12
sS'unicodes'
p13
(tsS'width'
p14
I1022
sS'contours'
p15
(tsS'components'
p16
(tsS'anchors'
p17
(tsssS'org.robofab.postScriptHintData'
p18
(dp19
s."
LayerCount: 2
Fore
SplineSet
444 1462 m 257
 444 1065 l 257
 160 1065 l 257
 160 1004 l 257
 444 1004 l 257
 444 546 l 257
 160 546 l 257
 160 486 l 257
 444 486 l 257
 444 123 l 257
 517 123 l 257
 517 486 l 257
 795 486 l 257
 795 546 l 257
 517 546 l 257
 517 1004 l 257
 796 1004 l 257
 796 1065 l 257
 511 1065 l 257
 511 1462 l 257
 444 1462 l 257
EndSplineSet
EndChar

StartChar: uni030F
Encoding: 408 783 186
Width: 764
VWidth: 0
Flags: W
PickledData: "(dp1
S'org.robofab.postScriptHintData'
p2
(dp3
sS'com.typemytype.robofont.layerData'
p4
(dp5
s."
AnchorPoint: "top" 429 1057 mark 0
LayerCount: 2
Fore
SplineSet
487 1241 m 257
 562 1241 l 257
 445 1560 l 257
 340 1560 l 257
 487 1241 l 257
265 1241 m 257
 341 1241 l 257
 191 1560 l 257
 72 1560 l 257
 265 1241 l 257
EndSplineSet
EndChar

StartChar: degree
Encoding: 111 176 189
Width: 863
VWidth: 0
GlyphClass: 2
Flags: W
PickledData: "(dp1
S'org.pippin.gimp.org.kernagic'
p2
(dp3
S'lstem'
p4
I0
sS'rstem'
p5
I0
ssS'com.typemytype.robofont.layerData'
p6
(dp7
sS'org.robofab.postScriptHintData'
p8
(dp9
s."
LayerCount: 2
Fore
SplineSet
426 912 m 256
 577 912 726 1029 726 1201 c 256
 726 1377 574 1489 426 1489 c 256
 284 1489 130 1377 130 1201 c 256
 130 1020 286 912 426 912 c 256
428 987 m 256
 307 987 216 1076 216 1200 c 256
 216 1325 310 1414 427 1414 c 256
 548 1414 642 1325 642 1200 c 256
 642 1078 548 987 428 987 c 256
EndSplineSet
EndChar

StartChar: dieresis
Encoding: 103 168 190
Width: 837
VWidth: 0
GlyphClass: 4
Flags: W
PickledData: "(dp1
S'org.robofab.postScriptHintData'
p2
(dp3
sS'com.typemytype.robofont.layerData'
p4
(dp5
s."
AnchorPoint: "top" 418 1082 mark 0
LayerCount: 2
Fore
SplineSet
599 1329 m 256
 658 1329 675 1369 675 1409 c 256
 675 1447 658 1487 599 1487 c 256
 538 1487 521 1447 521 1409 c 256
 521 1370 539 1329 599 1329 c 256
213 1329 m 256
 273 1329 289 1370 289 1409 c 256
 289 1447 273 1487 213 1487 c 256
 152 1487 136 1447 136 1409 c 256
 136 1370 154 1329 213 1329 c 256
EndSplineSet
EndChar

StartChar: divide
Encoding: 182 247 191
Width: 1078
VWidth: 0
GlyphClass: 2
Flags: W
PickledData: "(dp1
S'org.pippin.gimp.org.kernagic'
p2
(dp3
S'lstem'
p4
I0
sS'rstem'
p5
I0
ssS'com.typemytype.robofont.layerData'
p6
(dp7
sS'org.robofab.postScriptHintData'
p8
(dp9
s."
LayerCount: 2
Fore
SplineSet
454 1065 m 257
 454 894 l 257
 609 894 l 257
 609 1065 l 257
 454 1065 l 257
454 209 m 257
 454 37 l 257
 609 37 l 257
 609 209 l 257
 454 209 l 257
74 623 m 257
 74 512 l 257
 987 512 l 257
 987 623 l 257
 74 623 l 257
EndSplineSet
EndChar

StartChar: dollar
Encoding: 4 36 192
Width: 1202
VWidth: 0
GlyphClass: 2
Flags: W
PickledData: "(dp1
S'org.pippin.gimp.org.kernagic'
p2
(dp3
S'lstem'
p4
I0
sS'rstem'
p5
I0
ssS'com.typemytype.robofont.layerData'
p6
(dp7
S'b'
(dp8
S'name'
p9
S'dollar'
p10
sS'lib'
p11
(dp12
sS'unicodes'
p13
(tsS'width'
p14
I1221
sS'contours'
p15
(tsS'components'
p16
(tsS'anchors'
p17
(tsssS'org.robofab.postScriptHintData'
p18
(dp19
s."
LayerCount: 2
Fore
SplineSet
572 21 m 257
 572 -320 l 257
 656 -320 l 257
 663 21 l 257
 572 21 l 257
586 1731 m 257
 579 1437 l 257
 672 1437 l 257
 672 1731 l 257
 586 1731 l 257
EndSplineSet
Refer: 94 83 N 1 0 0 1 0 0 2
EndChar

StartChar: dotaccent
Encoding: 402 729 193
Width: 347
VWidth: 0
GlyphClass: 4
Flags: W
PickledData: "(dp1
S'org.robofab.postScriptHintData'
p2
(dp3
sS'com.typemytype.robofont.layerData'
p4
(dp5
s."
AnchorPoint: "top" 170 1082 mark 0
LayerCount: 2
Fore
SplineSet
262 1414 m 256
 262 1472 232 1504 171 1504 c 256
 109 1504 78 1472 78 1414 c 256
 78 1355 109 1323 171 1323 c 256
 232 1323 262 1355 262 1414 c 256
EndSplineSet
EndChar

StartChar: dotlessi
Encoding: 240 305 194
Width: 485
VWidth: 0
GlyphClass: 2
Flags: W
PickledData: "(dp1
S'org.pippin.gimp.org.kernagic'
p2
(dp3
S'lstem'
p4
I0
sS'rstem'
p5
I0
ssS'com.typemytype.robofont.layerData'
p6
(dp7
sS'org.robofab.postScriptHintData'
p8
(dp9
s."
AnchorPoint: "top" 253 1082 basechar 0
LayerCount: 2
Fore
SplineSet
189 1082 m 257
 189 0 l 257
 309 0 l 257
 309 1082 l 257
 189 1082 l 257
EndSplineSet
EndChar

StartChar: uni0237
Encoding: 65540 567 195
Width: 526
VWidth: 0
GlyphClass: 2
Flags: W
PickledData: "(dp1
S'org.pippin.gimp.org.kernagic'
p2
(dp3
S'lstem'
p4
I0
sS'rstem'
p5
I0
ssS'com.fontlab.hintData'
p6
(dp7
S'vhints'
p8
((dp9
S'position'
p10
I111
sS'width'
p11
I142
stp12
sS'hhints'
p13
((dp14
g10
I-479
sg11
I112
stp15
ssS'com.typemytype.robofont.layerData'
p16
(dp17
sS'org.robofab.postScriptHintData'
p18
(dp19
s."
HStem: -479 112
VStem: 111 142
LayerCount: 2
Fore
SplineSet
230 1082 m 261
 230 43 l 262
 230 -158 228 -215 76 -227 c 261
 30 -231 l 261
 34 -336 l 261
 91 -333 l 261
 262 -322 351 -254 351 -16 c 262
 351 1082 l 261
 230 1082 l 261
EndSplineSet
EndChar

StartChar: e
Encoding: 69 101 196
Width: 1122
VWidth: 0
GlyphClass: 2
Flags: HW
PickledData: "(dp1
S'org.pippin.gimp.org.kernagic'
p2
(dp3
S'lstem'
p4
I0
sS'rstem'
p5
I747
ssS'com.fontlab.hintData'
p6
(dp7
S'hhints'
p8
((dp9
S'position'
p10
I-19
sS'width'
p11
I94
s(dp12
g10
I982
sg11
I92
stp13
ssS'com.typemytype.robofont.layerData'
p14
(dp15
sS'org.robofab.postScriptHintData'
p16
(dp17
s."
HStem: -19 94 982 92
AnchorPoint: "bot" 609 0 basechar 0
AnchorPoint: "top" 592 1082 basechar 0
LayerCount: 2
Fore
SplineSet
242 616 m 257
 264 849 399 1011 611 1011 c 256
 812 1011 899 870 905 616 c 257
 242 616 l 257
998 535 m 257
 998 535 1004 586 1004 615 c 256
 1004 920 859 1104 604 1104 c 259
 346 1104 118 901 118 537 c 256
 118 198 328 -20 614 -20 c 256
 764 -20 881 21 978 77 c 257
 943 160 l 257
 931 160 l 257
 835 107 743 74 629 74 c 256
 418 74 250 214 238 535 c 257
 998 535 l 257
EndSplineSet
EndChar

StartChar: eight
Encoding: 24 56 204
Width: 1217
VWidth: 0
GlyphClass: 2
Flags: W
PickledData: "(dp1
S'org.pippin.gimp.org.kernagic'
p2
(dp3
S'lstem'
p4
I0
sS'rstem'
p5
I0
ssS'com.typemytype.robofont.layerData'
p6
(dp7
sS'org.robofab.postScriptHintData'
p8
(dp9
s."
LayerCount: 2
Fore
SplineSet
608 802 m 257
 404 846 301 958 301 1126 c 256
 301 1284 424 1379 608 1379 c 256
 794 1379 913 1284 913 1126 c 256
 913 958 815 846 608 802 c 257
608 77 m 256
 376 77 255 176 255 366 c 256
 255 558 409 662 608 703 c 257
 809 662 957 549 957 367 c 256
 957 167 848 77 608 77 c 256
608 -20 m 256
 865 -20 1066 100 1066 354 c 256
 1066 547 939 703 732 759 c 257
 913 815 1032 932 1032 1120 c 256
 1032 1342 867 1476 609 1476 c 256
 350 1476 182 1342 182 1120 c 256
 182 934 312 803 483 756 c 257
 267 690 150 567 150 353 c 256
 150 100 354 -20 608 -20 c 256
EndSplineSet
EndChar

StartChar: emdash
Encoding: 445 8212 207
Width: 2251
VWidth: 0
GlyphClass: 2
Flags: W
PickledData: "(dp1
S'org.robofab.postScriptHintData'
p2
(dp3
sS'com.typemytype.robofont.layerData'
p4
(dp5
s."
LayerCount: 2
Fore
SplineSet
60 556 m 257
 2191 556 l 257
 2191 650 l 257
 60 650 l 257
 60 556 l 257
EndSplineSet
EndChar

StartChar: endash
Encoding: 444 8211 208
Width: 1329
VWidth: 0
GlyphClass: 2
Flags: W
PickledData: "(dp1
S'org.pippin.gimp.org.kernagic'
p2
(dp3
S'lstem'
p4
I0
sS'rstem'
p5
I0
ssS'com.typemytype.robofont.layerData'
p6
(dp7
sS'org.robofab.postScriptHintData'
p8
(dp9
s."
LayerCount: 2
Fore
SplineSet
130 560 m 257
 1199 560 l 257
 1199 663 l 257
 130 663 l 257
 130 560 l 257
EndSplineSet
EndChar

StartChar: eng
Encoding: 266 331 209
Width: 1177
VWidth: 0
GlyphClass: 2
Flags: W
PickledData: "(dp1
S'org.robofab.postScriptHintData'
p2
(dp3
sS'com.typemytype.robofont.layerData'
p4
(dp5
s."
LayerCount: 2
Fore
SplineSet
889 222 m 257
 889 -3 l 257
 888 -239 848 -314 496 -314 c 257
 504 -407 l 257
 929 -407 1009 -288 1009 -16 c 258
 1009 222 l 257
 889 222 l 257
EndSplineSet
Refer: 277 110 N 1 0 0 1 0 0 2
EndChar

StartChar: equal
Encoding: 29 61 211
Width: 1057
VWidth: 0
GlyphClass: 2
Flags: W
PickledData: "(dp1
S'org.pippin.gimp.org.kernagic'
p2
(dp3
S'lstem'
p4
I0
sS'rstem'
p5
I0
ssS'com.typemytype.robofont.layerData'
p6
(dp7
S'b'
(dp8
S'name'
p9
S'equal'
p10
sS'lib'
p11
(dp12
sS'unicodes'
p13
(tsS'width'
p14
I1050
sS'contours'
p15
(tsS'components'
p16
(tsS'anchors'
p17
(tsssS'org.robofab.postScriptHintData'
p18
(dp19
s."
LayerCount: 2
Fore
SplineSet
132 556 m 257
 132 455 l 257
 929 455 l 257
 929 556 l 257
 132 556 l 257
132 939 m 257
 132 838 l 257
 929 838 l 257
 929 939 l 257
 132 939 l 257
EndSplineSet
EndChar

StartChar: estimated
Encoding: 465 8494 212
Width: 849
VWidth: 0
GlyphClass: 2
Flags: W
PickledData: "(dp1
S'org.robofab.postScriptHintData'
p2
(dp3
sS'com.typemytype.robofont.layerData'
p4
(dp5
S'b'
(dp6
S'name'
p7
S'estimated'
p8
sS'lib'
p9
(dp10
sS'unicodes'
p11
(tsS'width'
p12
I1223
sS'contours'
p13
(tsS'components'
p14
(tsS'anchors'
p15
(tsss."
LayerCount: 2
Fore
SplineSet
873 509 m 257
 288 509 l 257
 301 731 429 882 576 882 c 256
 754 882 873 708 873 509 c 257
101 458 m 256
 101 186 261 -19 586 -19 c 256
 762 -19 876 57 961 158 c 257
 917 201 l 257
 834 112 739 43 586 43 c 256
 391 43 287 206 286 441 c 257
 968 441 l 257
 968 736 842 933 571 933 c 256
 297 933 101 729 101 458 c 256
EndSplineSet
EndChar

StartChar: eth
Encoding: 175 240 213
Width: 1308
VWidth: 0
GlyphClass: 2
Flags: W
PickledData: "(dp1
S'org.pippin.gimp.org.kernagic'
p2
(dp3
S'lstem'
p4
I0
sS'rstem'
p5
I0
ssS'com.typemytype.robofont.layerData'
p6
(dp7
sS'org.robofab.postScriptHintData'
p8
(dp9
s."
LayerCount: 2
Fore
SplineSet
1015 500 m 256
 1015 237 892 63 643 63 c 256
 387 63 272 279 272 484 c 256
 272 707 407 882 636 882 c 256
 882 882 1015 687 1015 500 c 256
283 1612 m 257
 508 1407 l 257
 260 1312 l 257
 300 1234 l 257
 564 1335 l 257
 810 1098 917 935 970 810 c 257
 917 864 828 976 634 976 c 256
 355 976 150 778 150 486 c 256
 150 229 304 -27 637 -27 c 256
 979 -27 1126 213 1126 494 c 256
 1126 628 1095 773 1048 871 c 256
 986 999 888 1136 659 1375 c 257
 937 1478 l 257
 896 1554 l 257
 594 1439 l 257
 418 1612 l 257
 283 1612 l 257
EndSplineSet
EndChar

StartChar: exclam
Encoding: 1 33 214
Width: 594
VWidth: 0
GlyphClass: 2
Flags: W
PickledData: "(dp1
S'org.pippin.gimp.org.kernagic'
p2
(dp3
S'lstem'
p4
I0
sS'rstem'
p5
I0
ssS'com.typemytype.robofont.layerData'
p6
(dp7
sS'org.robofab.postScriptHintData'
p8
(dp9
s."
LayerCount: 2
Fore
SplineSet
295 -15 m 256
 372 -15 394 36 394 84 c 256
 394 130 372 182 295 182 c 256
 218 182 196 130 196 84 c 256
 196 39 218 -15 295 -15 c 256
268 413 m 257
 312 413 l 257
 361 1390 l 257
 361 1471 l 257
 215 1471 l 257
 215 1390 l 257
 268 413 l 257
EndSplineSet
EndChar

StartChar: f
Encoding: 70 102 216
Width: 738
VWidth: 0
GlyphClass: 2
Flags: W
PickledData: "(dp1
S'org.pippin.gimp.org.kernagic'
p2
(dp3
S'lstem'
p4
I182
sS'rstem'
p5
I417
ssS'com.fontlab.hintData'
p6
(dp7
S'vhints'
p8
((dp9
S'position'
p10
I269
sS'width'
p11
I166
stp12
sS'hhints'
p13
((dp14
g10
I952
sg11
I89
s(dp15
g10
I1358
sg11
I122
stp16
ssS'com.typemytype.robofont.layerData'
p17
(dp18
sS'org.robofab.postScriptHintData'
p19
(dp20
s."
HStem: 952 89 1358 122
VStem: 269 166
AnchorPoint: "top" 417 1455 basechar 0
LayerCount: 2
Fore
SplineSet
405 1082 m 257
 405 1169 l 258
 405 1393 460 1426 585 1426 c 256
 627 1426 693 1418 693 1418 c 257
 700 1499 l 257
 700 1499 644 1514 564 1514 c 258
 561 1514 l 258
 379 1514 284 1434 284 1167 c 258
 284 1080 l 257
 79 1065 l 257
 74 1011 l 257
 284 1011 l 257
 284 0 l 257
 405 0 l 257
 405 1011 l 257
 666 1011 l 257
 666 1082 l 257
 405 1082 l 257
EndSplineSet
EndChar

StartChar: five
Encoding: 21 53 217
Width: 1217
VWidth: 0
GlyphClass: 2
Flags: W
PickledData: "(dp1
S'org.pippin.gimp.org.kernagic'
p2
(dp3
S'lstem'
p4
I0
sS'rstem'
p5
I0
ssS'com.typemytype.robofont.layerData'
p6
(dp7
sS'org.robofab.postScriptHintData'
p8
(dp9
s."
LayerCount: 2
Fore
SplineSet
635 817 m 256
 871 817 961 643 961 463 c 256
 961 229 796 81 572 81 c 256
 452 81 346 117 238 205 c 257
 225 205 l 257
 169 131 l 257
 278 41 418 -20 576 -20 c 256
 871 -20 1087 170 1087 468 c 256
 1087 698 941 913 637 913 c 256
 517 913 434 878 347 813 c 257
 391 1359 l 257
 997 1359 l 257
 1010 1456 l 257
 288 1456 l 257
 239 712 l 257
 349 700 l 257
 413 771 523 817 635 817 c 256
EndSplineSet
EndChar

StartChar: florin
Encoding: 318 402 219
Width: 949
VWidth: 0
GlyphClass: 2
Flags: W
PickledData: "(dp1
S'org.robofab.postScriptHintData'
p2
(dp3
s."
LayerCount: 2
Fore
SplineSet
506 1194 m 258
 453 920 l 257
 291 920 l 257
 278 853 l 257
 442 853 l 257
 285 141 l 258
 252 -9 256 -153 81 -153 c 256
 55 -153 25 -150 -10 -143 c 257
 -24 -205 l 257
 17 -215 55 -220 90 -220 c 256
 249 -220 347 -110 401 140 c 258
 557 853 l 257
 797 853 l 257
 810 920 l 257
 572 920 l 257
 623 1193 l 257
 650 1332 692 1414 790 1414 c 256
 865 1414 906 1365 906 1254 c 257
 997 1254 l 257
 997 1432 901 1487 788 1487 c 256
 625 1487 542 1382 506 1194 c 258
EndSplineSet
EndChar

StartChar: foundryicon
Encoding: 488 -1 220
Width: 1347
VWidth: 0
GlyphClass: 2
Flags: W
PickledData: "(dp1
S'org.robofab.postScriptHintData'
p2
(dp3
s."
LayerCount: 2
Fore
SplineSet
280 2 m 257
 669 278 l 257
 1066 2 l 257
 922 461 l 257
 1313 755 l 257
 828 755 l 257
 669 1215 l 257
 519 755 l 257
 34 755 l 257
 423 461 l 257
 280 2 l 257
485 405 m 257
 485 672 l 257
 591 672 l 257
 761 523 l 257
 761 672 l 257
 867 672 l 257
 867 405 l 257
 761 405 l 257
 591 552 l 257
 591 405 l 257
 485 405 l 257
EndSplineSet
EndChar

StartChar: four
Encoding: 20 52 221
Width: 1217
VWidth: 0
GlyphClass: 2
Flags: W
PickledData: "(dp1
S'org.pippin.gimp.org.kernagic'
p2
(dp3
S'lstem'
p4
I0
sS'rstem'
p5
I0
ssS'com.typemytype.robofont.layerData'
p6
(dp7
sS'org.robofab.postScriptHintData'
p8
(dp9
s."
LayerCount: 2
Fore
SplineSet
255 493 m 257
 811 1286 l 257
 811 493 l 257
 255 493 l 257
813 0 m 257
 926 0 l 257
 926 396 l 257
 1094 396 l 257
 1104 491 l 257
 926 491 l 257
 925 1456 l 257
 823 1456 l 257
 133 515 l 257
 153 396 l 257
 813 396 l 257
 813 0 l 257
EndSplineSet
EndChar

StartChar: fraction
Encoding: 459 8260 222
Width: 1141
VWidth: 0
GlyphClass: 2
Flags: W
PickledData: "(dp1
S'org.robofab.postScriptHintData'
p2
(dp3
s."
LayerCount: 2
Fore
SplineSet
174 0 m 257
 282 0 l 257
 958 1528 l 257
 856 1528 l 257
 174 0 l 257
EndSplineSet
EndChar

StartChar: g
Encoding: 71 103 223
Width: 1237
VWidth: 0
GlyphClass: 2
Flags: W
PickledData: "(dp1
S'org.pippin.gimp.org.kernagic'
p2
(dp3
S'lstem'
p4
I0
sS'rstem'
p5
I0
ssS'com.fontlab.hintData'
p6
(dp7
S'vhints'
p8
((dp9
S'position'
p10
I128
sS'width'
p11
I122
s(dp12
g10
I977
sg11
I125
s(dp13
g10
I977
sg11
I36
stp14
sS'hhints'
p15
((dp16
g10
I-426
sg11
I101
s(dp17
g10
I0
sg11
I93
s(dp18
g10
I982
sg11
I92
stp19
ssS'com.typemytype.robofont.layerData'
p20
(dp21
sS'org.robofab.postScriptHintData'
p22
(dp23
s."
HStem: -426 101 0 93 982 92
VStem: 128 122 977 125 977 36
AnchorPoint: "top" 612 1082 basechar 0
LayerCount: 2
Fore
SplineSet
596 84 m 256
 338 84 241 321 241 540 c 256
 241 768 337 1012 596 1012 c 256
 808 1012 899 887 947 794 c 257
 947 284 l 257
 904 209 812 84 596 84 c 256
567 -461 m 256
 953 -461 1065 -267 1065 71 c 258
 1065 1082 l 257
 959 1082 l 257
 950 930 l 257
 886 1029 773 1104 606 1104 c 256
 250 1104 118 822 118 539 c 256
 118 268 256 -8 595 -8 c 258
 597 -8 l 258
 759 -8 879 62 948 161 c 257
 948 47 l 258
 948 -257 836 -365 560 -365 c 256
 462 -365 346 -342 286 -317 c 257
 271 -317 l 257
 265 -413 l 257
 322 -434 441 -461 567 -461 c 256
EndSplineSet
EndChar

StartChar: germandbls
Encoding: 158 223 229
Width: 1221
VWidth: 0
GlyphClass: 2
Flags: W
PickledData: "(dp1
S'org.pippin.gimp.org.kernagic'
p2
(dp3
S'lstem'
p4
I0
sS'rstem'
p5
I0
ssS'com.typemytype.robofont.layerData'
p6
(dp7
S'b'
(dp8
S'name'
p9
S'germandbls'
p10
sS'lib'
p11
(dp12
sS'unicodes'
p13
(tsS'width'
p14
I1278
sS'contours'
p15
(tsS'components'
p16
(tsS'anchors'
p17
(tsssS'org.robofab.postScriptHintData'
p18
(dp19
s."
LayerCount: 2
Fore
SplineSet
815 -19 m 256
 1008 -19 1120 102 1120 281 c 256
 1120 570 723 652 723 777 c 256
 723 877 948 1018 948 1216 c 256
 948 1385 830 1520 607 1520 c 256
 307 1520 190 1342 190 1050 c 258
 190 0 l 257
 312 0 l 257
 312 1059 l 258
 312 1332 408 1425 607 1425 c 256
 758 1425 825 1339 825 1221 c 256
 825 998 616 934 616 768 c 256
 616 568 1005 498 1005 272 c 256
 1005 188 959 82 811 82 c 256
 685 82 575 125 513 158 c 257
 476 61 l 257
 537 25 675 -19 815 -19 c 256
EndSplineSet
EndChar

StartChar: grave
Encoding: 64 96 230
Width: 843
VWidth: 0
GlyphClass: 4
Flags: W
PickledData: "(dp1
S'org.robofab.postScriptHintData'
p2
(dp3
sS'com.typemytype.robofont.layerData'
p4
(dp5
s."
AnchorPoint: "top" 425 1057 mark 0
LayerCount: 2
Fore
SplineSet
394 1210 m 257
 468 1210 l 257
 260 1569 l 257
 105 1569 l 257
 394 1210 l 257
EndSplineSet
EndChar

StartChar: greater
Encoding: 30 62 231
Width: 1189
VWidth: 0
GlyphClass: 2
Flags: W
PickledData: "(dp1
S'org.pippin.gimp.org.kernagic'
p2
(dp3
S'lstem'
p4
I0
sS'rstem'
p5
I0
ssS'com.typemytype.robofont.layerData'
p6
(dp7
S'b'
(dp8
S'name'
p9
S'greater'
p10
sS'lib'
p11
(dp12
sS'unicodes'
p13
(tsS'width'
p14
I1107
sS'contours'
p15
(tsS'components'
p16
(tsS'anchors'
p17
(tsssS'org.robofab.postScriptHintData'
p18
(dp19
s."
LayerCount: 2
Fore
SplineSet
129 1023 m 257
 928 607 l 257
 126 231 l 257
 126 124 l 257
 1062 566 l 257
 1062 638 l 257
 129 1132 l 257
 129 1023 l 257
EndSplineSet
EndChar

StartChar: greaterequal
Encoding: 480 8805 232
Width: 1226
VWidth: 0
GlyphClass: 2
Flags: W
PickledData: "(dp1
S'org.pippin.gimp.org.kernagic'
p2
(dp3
S'lstem'
p4
I0
sS'rstem'
p5
I0
ssS'com.typemytype.robofont.layerData'
p6
(dp7
S'b'
(dp8
S'name'
p9
S'greaterequal'
p10
sS'lib'
p11
(dp12
sS'unicodes'
p13
(tsS'width'
p14
I1192
sS'contours'
p15
(tsS'components'
p16
(tsS'anchors'
p17
(tsssS'org.robofab.postScriptHintData'
p18
(dp19
s."
LayerCount: 2
Fore
SplineSet
127 11 m 257
 1077 11 l 257
 1077 117 l 257
 127 115 l 257
 127 11 l 257
168 243 m 257
 1051 728 l 257
 1051 788 l 257
 173 1307 l 257
 173 1200 l 257
 964 758 l 257
 168 347 l 257
 168 243 l 257
EndSplineSet
EndChar

StartChar: guillemotleft
Encoding: 106 171 233
Width: 1005
VWidth: 0
GlyphClass: 2
Flags: W
PickledData: "(dp1
S'org.pippin.gimp.org.kernagic'
p2
(dp3
S'lstem'
p4
I0
sS'rstem'
p5
I0
ssS'com.typemytype.robofont.layerData'
p6
(dp7
S'b'
(dp8
S'name'
p9
S'guillemotleft'
p10
sS'lib'
p11
(dp12
sS'unicodes'
p13
(tsS'width'
p14
I994
sS'contours'
p15
(tsS'components'
p16
(tsS'anchors'
p17
(tsssS'org.robofab.postScriptHintData'
p18
(dp19
s."
LayerCount: 2
Fore
SplineSet
724 157 m 257
 818 165 l 257
 553 545 l 257
 825 920 l 257
 727 928 l 257
 449 542 l 257
 724 157 l 257
396 157 m 257
 490 165 l 257
 226 545 l 257
 498 920 l 257
 400 928 l 257
 121 542 l 257
 396 157 l 257
EndSplineSet
EndChar

StartChar: guillemotright
Encoding: 122 187 234
Width: 976
VWidth: 0
GlyphClass: 2
Flags: W
PickledData: "(dp1
S'org.pippin.gimp.org.kernagic'
p2
(dp3
S'lstem'
p4
I0
sS'rstem'
p5
I0
ssS'com.typemytype.robofont.layerData'
p6
(dp7
sS'org.robofab.postScriptHintData'
p8
(dp9
s."
LayerCount: 2
Fore
SplineSet
568 157 m 257
 844 542 l 257
 568 928 l 257
 472 921 l 257
 740 541 l 257
 471 165 l 257
 568 157 l 257
239 157 m 257
 516 542 l 257
 240 928 l 257
 144 921 l 257
 412 541 l 257
 142 165 l 257
 239 157 l 257
EndSplineSet
EndChar

StartChar: guilsinglleft
Encoding: 457 8249 235
Width: 638
VWidth: 0
GlyphClass: 2
Flags: W
PickledData: "(dp1
S'org.robofab.postScriptHintData'
p2
(dp3
s."
LayerCount: 2
Fore
SplineSet
419 142 m 257
 526 142 l 257
 228 560 l 257
 532 985 l 257
 423 985 l 257
 114 560 l 257
 419 142 l 257
EndSplineSet
EndChar

StartChar: guilsinglright
Encoding: 458 8250 236
Width: 712
VWidth: 0
GlyphClass: 2
Flags: W
PickledData: "(dp1
S'org.pippin.gimp.org.kernagic'
p2
(dp3
S'lstem'
p4
I0
sS'rstem'
p5
I0
ssS'com.typemytype.robofont.layerData'
p6
(dp7
S'b'
(dp8
S'name'
p9
S'guilsinglright'
p10
sS'lib'
p11
(dp12
sS'unicodes'
p13
(tsS'width'
p14
I766
sS'contours'
p15
(tsS'components'
p16
(tsS'anchors'
p17
(tsssS'org.robofab.postScriptHintData'
p18
(dp19
s."
LayerCount: 2
Fore
SplineSet
160 142 m 257
 268 142 l 257
 579 576 l 257
 269 1005 l 257
 160 1005 l 257
 461 576 l 257
 160 142 l 257
EndSplineSet
EndChar

StartChar: h
Encoding: 72 104 237
Width: 1190
VWidth: 0
GlyphClass: 2
Flags: W
PickledData: "(dp1
S'org.pippin.gimp.org.kernagic'
p2
(dp3
S'lstem'
p4
I0
sS'rstem'
p5
I0
ssS'com.fontlab.hintData'
p6
(dp7
S'vhints'
p8
((dp9
S'position'
p10
I193
sS'width'
p11
I122
s(dp12
g10
I910
sg11
I122
stp13
sS'hhints'
p14
((dp15
g10
I982
sg11
I92
stp16
ssS'com.typemytype.robofont.layerData'
p17
(dp18
sS'org.robofab.postScriptHintData'
p19
(dp20
s."
HStem: 982 92
VStem: 193 122 910 122
AnchorPoint: "top" 614 1320 basechar 0
LayerCount: 2
Fore
SplineSet
181 0 m 257
 302 0 l 257
 302 631 l 258
 302 803 378 1012 656 1012 c 256
 836 1012 902 896 902 674 c 258
 902 0 l 257
 1023 0 l 257
 1023 672 l 258
 1023 938 908 1104 673 1104 c 256
 509 1104 373 1043 297 892 c 257
 302 1132 l 257
 302 1560 l 257
 181 1540 l 257
 181 0 l 257
EndSplineSet
EndChar

StartChar: hungarumlaut
Encoding: 406 733 240
Width: 715
VWidth: 0
GlyphClass: 4
Flags: W
PickledData: "(dp1
S'org.robofab.postScriptHintData'
p2
(dp3
sS'com.typemytype.robofont.layerData'
p4
(dp5
s."
AnchorPoint: "top" 314 1057 mark 0
LayerCount: 2
Fore
SplineSet
398 1241 m 257
 474 1241 l 257
 668 1560 l 257
 549 1560 l 257
 398 1241 l 257
177 1241 m 257
 252 1241 l 257
 400 1560 l 257
 294 1560 l 257
 177 1241 l 257
EndSplineSet
EndChar

StartChar: hyphen
Encoding: 13 45 241
Width: 825
VWidth: 0
GlyphClass: 4
Flags: W
PickledData: "(dp1
S'org.pippin.gimp.org.kernagic'
p2
(dp3
S'lstem'
p4
I0
sS'rstem'
p5
I0
ssS'com.typemytype.robofont.layerData'
p6
(dp7
sS'org.robofab.postScriptHintData'
p8
(dp9
s."
LayerCount: 2
Fore
SplineSet
154 534 m 257
 650 534 l 257
 650 630 l 257
 154 630 l 257
 154 534 l 257
EndSplineSet
EndChar

StartChar: i
Encoding: 73 105 242
Width: 511
VWidth: 0
GlyphClass: 2
Flags: HW
PickledData: "(dp1
S'org.robofab.postScriptHintData'
p2
(dp3
sS'com.typemytype.robofont.layerData'
p4
(dp5
s."
LayerCount: 2
Fore
SplineSet
361 1414 m 256
 361 1472 331 1504 270 1504 c 256
 208 1504 177 1472 177 1414 c 256
 177 1355 208 1323 270 1323 c 256
 331 1323 361 1355 361 1414 c 256
207 1082 m 257
 207 0 l 257
 327 0 l 257
 327 1082 l 257
 207 1082 l 257
EndSplineSet
EndChar

StartChar: infinity
Encoding: 475 8734 253
Width: 1700
VWidth: 0
GlyphClass: 2
Flags: W
PickledData: "(dp1
S'org.pippin.gimp.org.kernagic'
p2
(dp3
S'lstem'
p4
I0
sS'rstem'
p5
I0
ssS'com.typemytype.robofont.layerData'
p6
(dp7
S'b'
(dp8
S'name'
p9
S'infinity'
p10
sS'lib'
p11
(dp12
sS'unicodes'
p13
(tsS'width'
p14
I1647
sS'contours'
p15
(tsS'components'
p16
(tsS'anchors'
p17
(tsssS'org.robofab.postScriptHintData'
p18
(dp19
s."
LayerCount: 2
Fore
SplineSet
1499 651 m 256
 1499 476 1408 352 1255 352 c 256
 1138 352 1038 438 898 634 c 257
 1008 801 1114 897 1251 897 c 256
 1398 897 1499 793 1499 651 c 256
802 618 m 257
 688 445 579 352 446 352 c 256
 290 352 185 471 185 626 c 256
 185 782 285 897 439 897 c 256
 580 897 689 802 802 618 c 257
848 707 m 257
 704 899 585 993 440 993 c 256
 239 993 95 848 95 646 c 256
 95 424 230 260 444 260 c 256
 592 260 712 354 853 541 c 257
 999 344 1115 260 1253 260 c 256
 1455 260 1599 409 1599 629 c 256
 1599 844 1467 993 1255 993 c 256
 1104 993 985 897 848 707 c 257
EndSplineSet
EndChar

StartChar: integral
Encoding: 476 8747 254
Width: 829
VWidth: 0
GlyphClass: 2
Flags: W
PickledData: "(dp1
S'org.pippin.gimp.org.kernagic'
p2
(dp3
S'lstem'
p4
I0
sS'rstem'
p5
I0
ssS'com.typemytype.robofont.layerData'
p6
(dp7
S'b'
(dp8
S'name'
p9
S'integral'
p10
sS'lib'
p11
(dp12
sS'unicodes'
p13
(tsS'width'
p14
I994
sS'contours'
p15
(tsS'components'
p16
(tsS'anchors'
p17
(tsssS'org.robofab.postScriptHintData'
p18
(dp19
s."
LayerCount: 2
Fore
SplineSet
403 1143 m 258
 403 -45 l 258
 403 -221 378 -332 241 -332 c 256
 214 -332 181 -328 145 -319 c 257
 145 -398 l 257
 186 -407 223 -411 256 -411 c 256
 437 -411 501 -280 501 -37 c 258
 501 1139 l 258
 501 1333 525 1411 642 1411 c 256
 669 1411 699 1406 735 1396 c 257
 735 1474 l 257
 691 1484 652 1489 618 1489 c 256
 459 1489 403 1380 403 1143 c 258
EndSplineSet
EndChar

StartChar: j
Encoding: 74 106 257
Width: 523
VWidth: 0
GlyphClass: 2
Flags: HW
PickledData: "(dp1
S'org.robofab.postScriptHintData'
p2
(dp3
sS'com.typemytype.robofont.layerData'
p4
(dp5
s."
LayerCount: 2
Fore
SplineSet
376 1414 m 256
 376 1472 346 1504 285 1504 c 256
 223 1504 192 1472 192 1414 c 256
 192 1355 223 1323 285 1323 c 256
 346 1323 376 1355 376 1414 c 256
229 1082 m 261
 229 43 l 262
 229 -158 227 -215 75 -227 c 261
 29 -231 l 261
 33 -336 l 261
 90 -333 l 261
 261 -322 350 -254 350 -16 c 262
 350 1082 l 261
 229 1082 l 261
EndSplineSet
EndChar

StartChar: k
Encoding: 75 107 259
Width: 1065
VWidth: 0
GlyphClass: 2
Flags: W
PickledData: "(dp1
S'org.pippin.gimp.org.kernagic'
p2
(dp3
S'lstem'
p4
I0
sS'rstem'
p5
I671
ssS'com.typemytype.robofont.layerData'
p6
(dp7
sS'org.robofab.postScriptHintData'
p8
(dp9
s."
AnchorPoint: "bot" 586 0 basechar 0
LayerCount: 2
Fore
SplineSet
182 0 m 257
 303 0 l 257
 303 396 l 257
 438 515 l 257
 899 0 l 257
 1033 0 l 257
 1033 12 l 257
 516 578 l 257
 1017 1069 l 257
 1017 1082 l 257
 883 1082 l 257
 297 506 l 257
 303 716 l 257
 303 1560 l 257
 182 1540 l 257
 182 0 l 257
EndSplineSet
EndChar

StartChar: kgreenlandic
Encoding: 247 312 261
Width: 1065
VWidth: 0
GlyphClass: 2
Flags: W
PickledData: "(dp1
S'org.robofab.postScriptHintData'
p2
(dp3
s."
LayerCount: 2
Fore
SplineSet
175 0 m 257
 297 0 l 257
 297 402 l 257
 432 521 l 257
 892 0 l 257
 1022 0 l 257
 1022 17 l 257
 510 584 l 257
 1005 1064 l 257
 1005 1082 l 257
 877 1082 l 257
 291 513 l 257
 297 722 l 257
 297 1082 l 257
 175 1082 l 257
 175 0 l 257
EndSplineSet
EndChar

StartChar: l
Encoding: 76 108 262
Width: 600
VWidth: 0
GlyphClass: 2
Flags: W
PickledData: "(dp1
S'org.pippin.gimp.org.kernagic'
p2
(dp3
S'lstem'
p4
I0
sS'rstem'
p5
I238
ssS'com.fontlab.hintData'
p6
(dp7
S'vhints'
p8
((dp9
S'position'
p10
I193
sS'width'
p11
I122
stp12
sS'hhints'
p13
((dp14
g10
I-11
sg11
I87
stp15
ssS'com.typemytype.robofont.layerData'
p16
(dp17
sS'org.robofab.postScriptHintData'
p18
(dp19
s."
HStem: -11 87
VStem: 193 122
AnchorPoint: "top" 344 1472 basechar 0
LayerCount: 2
Fore
SplineSet
441 -9 m 256
 478 -9 534 -7 549 -6 c 257
 555 82 l 257
 548 80 495 80 462 80 c 256
 334 83 305 131 305 269 c 258
 305 1560 l 257
 184 1540 l 257
 184 267 l 258
 184 32 309 -9 441 -9 c 256
EndSplineSet
EndChar

StartChar: less
Encoding: 28 60 267
Width: 1180
VWidth: 0
GlyphClass: 2
Flags: W
PickledData: "(dp1
S'org.pippin.gimp.org.kernagic'
p2
(dp3
S'lstem'
p4
I0
sS'rstem'
p5
I0
ssS'com.typemytype.robofont.layerData'
p6
(dp7
S'b'
(dp8
S'name'
p9
S'less'
p10
sS'lib'
p11
(dp12
sS'unicodes'
p13
(tsS'width'
p14
I1107
sS'contours'
p15
(tsS'components'
p16
(tsS'anchors'
p17
(tsssS'org.robofab.postScriptHintData'
p18
(dp19
s."
LayerCount: 2
Fore
SplineSet
1035 117 m 257
 1037 223 l 257
 225 607 l 257
 1038 1014 l 257
 1038 1124 l 257
 102 638 l 257
 102 568 l 257
 1035 117 l 257
EndSplineSet
EndChar

StartChar: lessequal
Encoding: 479 8804 268
Width: 1229
VWidth: 0
GlyphClass: 2
Flags: W
PickledData: "(dp1
S'org.robofab.postScriptHintData'
p2
(dp3
sS'com.typemytype.robofont.layerData'
p4
(dp5
s."
LayerCount: 2
Fore
SplineSet
125 3 m 257
 1080 3 l 257
 1080 103 l 257
 125 103 l 257
 125 3 l 257
1040 232 m 257
 1040 335 l 257
 308 753 l 257
 1039 1195 l 257
 1039 1304 l 257
 166 784 l 257
 166 721 l 257
 1040 232 l 257
EndSplineSet
EndChar

StartChar: logicalnot
Encoding: 107 172 269
Width: 1232
VWidth: 0
GlyphClass: 2
Flags: W
PickledData: "(dp1
S'org.pippin.gimp.org.kernagic'
p2
(dp3
S'lstem'
p4
I0
sS'rstem'
p5
I0
ssS'com.typemytype.robofont.layerData'
p6
(dp7
sS'org.robofab.postScriptHintData'
p8
(dp9
s."
LayerCount: 2
Fore
SplineSet
109 788 m 257
 109 695 l 257
 974 695 l 257
 974 259 l 257
 1061 259 l 257
 1061 788 l 257
 109 788 l 257
EndSplineSet
EndChar

StartChar: lozenge
Encoding: 481 9674 270
Width: 1180
VWidth: 0
GlyphClass: 2
Flags: W
PickledData: "(dp1
S'org.pippin.gimp.org.kernagic'
p2
(dp3
S'lstem'
p4
I0
sS'rstem'
p5
I0
ssS'com.typemytype.robofont.layerData'
p6
(dp7
S'b'
(dp8
S'name'
p9
S'lozenge'
p10
sS'lib'
p11
(dp12
sS'unicodes'
p13
(tsS'width'
p14
I1164
sS'contours'
p15
(tsS'components'
p16
(tsS'anchors'
p17
(tsssS'org.robofab.postScriptHintData'
p18
(dp19
s."
LayerCount: 2
Fore
SplineSet
933 775 m 257
 573 69 l 257
 221 777 l 257
 584 1477 l 257
 933 775 l 257
536 1597 m 257
 110 775 l 257
 530 -43 l 257
 617 -43 l 257
 1043 778 l 257
 625 1597 l 257
 536 1597 l 257
EndSplineSet
EndChar

StartChar: m
Encoding: 77 109 272
Width: 1796
VWidth: 0
GlyphClass: 2
Flags: W
PickledData: "(dp1
S'org.pippin.gimp.org.kernagic'
p2
(dp3
S'lstem'
p4
I0
sS'rstem'
p5
I0
ssS'com.fontlab.hintData'
p6
(dp7
S'vhints'
p8
((dp9
S'position'
p10
I193
sS'width'
p11
I122
s(dp12
g10
I193
sg11
I98
s(dp13
g10
I845
sg11
I122
s(dp14
g10
I1483
sg11
I122
stp15
sS'hhints'
p16
((dp17
g10
I982
sg11
I92
stp18
ssS'com.typemytype.robofont.layerData'
p19
(dp20
sS'org.robofab.postScriptHintData'
p21
(dp22
s."
HStem: 982 92
VStem: 193 122 193 98 845 122 1483 122
AnchorPoint: "top" 939 1082 basechar 0
LayerCount: 2
Fore
SplineSet
965 634 m 258
 965 840 1077 1012 1292 1012 c 256
 1476 1012 1509 865 1509 686 c 258
 1509 0 l 257
 1629 0 l 257
 1629 676 l 258
 1629 966 1530 1104 1303 1104 c 256
 1141 1104 1004 1029 940 855 c 257
 902 1008 803 1104 637 1104 c 256
 488 1104 368 1037 295 887 c 257
 281 1082 l 257
 181 1082 l 257
 181 0 l 257
 301 0 l 257
 301 659 l 257
 312 837 400 1012 626 1012 c 256
 799 1012 845 890 845 671 c 258
 845 0 l 257
 965 0 l 257
 965 634 l 258
EndSplineSet
EndChar

StartChar: macron
Encoding: 110 175 273
Width: 1205
VWidth: 0
GlyphClass: 4
Flags: W
PickledData: "(dp1
S'org.robofab.postScriptHintData'
p2
(dp3
sS'com.typemytype.robofont.layerData'
p4
(dp5
s."
AnchorPoint: "top" 602 1057 mark 0
LayerCount: 2
Fore
SplineSet
327 1362 m 257
 835 1362 l 257
 835 1432 l 257
 327 1432 l 257
 327 1362 l 257
EndSplineSet
EndChar

StartChar: minus
Encoding: 471 8722 275
Width: 1115
VWidth: 0
GlyphClass: 2
Flags: W
PickledData: "(dp1
S'org.pippin.gimp.org.kernagic'
p2
(dp3
S'lstem'
p4
I0
sS'rstem'
p5
I0
ssS'com.typemytype.robofont.layerData'
p6
(dp7
sS'org.robofab.postScriptHintData'
p8
(dp9
s."
LayerCount: 2
Fore
SplineSet
80 674 m 257
 80 563 l 257
 1020 563 l 257
 1020 674 l 257
 80 674 l 257
EndSplineSet
EndChar

StartChar: multiply
Encoding: 150 215 276
Width: 780
VWidth: 0
GlyphClass: 2
Flags: W
PickledData: "(dp1
S'org.pippin.gimp.org.kernagic'
p2
(dp3
S'lstem'
p4
I0
sS'rstem'
p5
I0
ssS'com.typemytype.robofont.layerData'
p6
(dp7
sS'org.robofab.postScriptHintData'
p8
(dp9
s."
LayerCount: 2
Fore
SplineSet
65 905 m 257
 332 614 l 257
 51 310 l 257
 113 251 l 257
 391 549 l 257
 666 251 l 257
 723 314 l 257
 723 314 452 613 451 614 c 257
 719 899 l 257
 653 964 l 257
 391 679 l 257
 127 970 l 257
 65 905 l 257
EndSplineSet
EndChar

StartChar: n
Encoding: 78 110 277
Width: 1176
VWidth: 0
GlyphClass: 2
Flags: W
PickledData: "(dp1
S'org.pippin.gimp.org.kernagic'
p2
(dp3
S'lstem'
p4
I0
sS'rstem'
p5
I0
ssS'com.fontlab.hintData'
p6
(dp7
S'vhints'
p8
((dp9
S'position'
p10
I193
sS'width'
p11
I122
s(dp12
g10
I903
sg11
I122
stp13
sS'hhints'
p14
((dp15
g10
I0
sg11
I22
s(dp16
g10
I982
sg11
I92
s(dp17
g10
I1034
sg11
I21
stp18
ssS'com.typemytype.robofont.layerData'
p19
(dp20
sS'org.robofab.postScriptHintData'
p21
(dp22
s."
HStem: 0 22 982 92 1034 21
VStem: 193 122 903 122
AnchorPoint: "bot" 591 0 basechar 0
AnchorPoint: "top" 662 1082 basechar 0
LayerCount: 2
Fore
SplineSet
180 0 m 257
 301 0 l 257
 301 648 l 258
 301 828 378 1012 649 1012 c 256
 835 1012 889 885 889 695 c 258
 889 0 l 257
 1009 0 l 257
 1009 657 l 258
 1009 958 903 1104 661 1104 c 256
 474 1104 356 1028 295 888 c 257
 280 1082 l 257
 180 1082 l 257
 180 0 l 257
EndSplineSet
EndChar

StartChar: nine
Encoding: 25 57 282
Width: 1217
VWidth: 0
GlyphClass: 2
Flags: W
PickledData: "(dp1
S'org.pippin.gimp.org.kernagic'
p2
(dp3
S'lstem'
p4
I0
sS'rstem'
p5
I0
ssS'com.typemytype.robofont.layerData'
p6
(dp7
sS'org.robofab.postScriptHintData'
p8
(dp9
s."
LayerCount: 2
Fore
SplineSet
976 1033 m 256
 976 753 739 695 624 695 c 256
 415 695 295 839 295 1028 c 256
 295 1209 416 1379 637 1379 c 256
 861 1379 976 1211 976 1033 c 256
359 0 m 257
 488 0 l 257
 829 447 l 258
 985 651 1085 795 1085 1022 c 256
 1085 1245 939 1476 637 1476 c 256
 352 1476 182 1270 182 1027 c 256
 182 767 382 594 601 594 c 256
 692 594 788 620 862 668 c 257
 696 448 527 231 359 13 c 257
 359 0 l 257
EndSplineSet
EndChar

StartChar: notequal
Encoding: 478 8800 283
Width: 1130
VWidth: 0
GlyphClass: 2
Flags: W
PickledData: "(dp1
S'org.pippin.gimp.org.kernagic'
p2
(dp3
S'lstem'
p4
I0
sS'rstem'
p5
I0
ssS'com.typemytype.robofont.layerData'
p6
(dp7
S'b'
(dp8
S'name'
p9
S'notequal'
p10
sS'lib'
p11
(dp12
sS'unicodes'
p13
(tsS'width'
p14
I1079
sS'contours'
p15
(tsS'components'
p16
(tsS'anchors'
p17
(tsssS'org.robofab.postScriptHintData'
p18
(dp19
s."
LayerCount: 2
Fore
SplineSet
288 51 m 257
 452 368 l 257
 999 368 l 257
 997 457 l 257
 491 457 l 257
 684 814 l 257
 999 814 l 257
 993 900 l 257
 721 900 l 257
 871 1204 l 257
 793 1209 l 257
 631 900 l 257
 97 900 l 257
 102 813 l 257
 592 813 l 257
 405 457 l 257
 97 457 l 257
 102 368 l 257
 358 368 l 257
 209 58 l 257
 288 51 l 257
EndSplineSet
EndChar

StartChar: numbersign
Encoding: 3 35 285
Width: 1171
VWidth: 0
GlyphClass: 2
Flags: W
PickledData: "(dp1
S'org.pippin.gimp.org.kernagic'
p2
(dp3
S'lstem'
p4
I0
sS'rstem'
p5
I0
ssS'com.typemytype.robofont.layerData'
p6
(dp7
sS'org.robofab.postScriptHintData'
p8
(dp9
s."
LayerCount: 2
Fore
SplineSet
402 514 m 257
 496 975 l 257
 794 975 l 257
 701 514 l 257
 402 514 l 257
216 -8 m 257
 296 -8 l 257
 387 438 l 257
 685 438 l 257
 597 -8 l 257
 677 -8 l 257
 767 438 l 257
 972 438 l 257
 985 514 l 257
 782 514 l 257
 876 975 l 257
 1063 975 l 257
 1077 1050 l 257
 891 1050 l 257
 983 1497 l 257
 904 1497 l 257
 810 1050 l 257
 512 1050 l 257
 604 1497 l 257
 522 1497 l 257
 430 1050 l 257
 245 1050 l 257
 235 975 l 257
 414 975 l 257
 321 514 l 257
 147 514 l 257
 136 438 l 257
 306 438 l 257
 216 -8 l 257
EndSplineSet
EndChar

StartChar: o
Encoding: 79 111 286
Width: 1199
VWidth: 0
GlyphClass: 2
Flags: W
PickledData: "(dp1
S'org.pippin.gimp.org.kernagic'
p2
(dp3
S'lstem'
p4
I0
sS'rstem'
p5
I0
ssS'org.robofab.postScriptHintData'
p6
(dp7
sS'com.typemytype.robofont.guides'
p8
((dp9
S'y'
I1093
sS'x'
I582
sS'magnetic'
p10
I5
sS'angle'
p11
F90
sS'isGlobal'
p12
I00
stp13
sS'com.typemytype.robofont.layerData'
p14
(dp15
sS'com.fontlab.hintData'
p16
(dp17
S'vhints'
p18
((dp19
S'position'
p20
I128
sS'width'
p21
I120
s(dp22
g20
I982
sg21
I120
stp23
sS'hhints'
p24
((dp25
g20
I-19
sg21
I92
s(dp26
g20
I982
sg21
I92
stp27
ss."
HStem: -19 92 982 92
VStem: 128 120 982 120
AnchorPoint: "top" 602 1082 basechar 0
LayerCount: 2
Fore
SplineSet
600 -20 m 256
 897 -20 1081 212 1081 541 c 256
 1081 883 899 1104 600 1104 c 256
 301 1104 118 883 118 541 c 256
 118 212 302 -20 600 -20 c 256
600 71 m 256
 371 71 242 271 242 540 c 256
 242 822 372 1012 600 1012 c 256
 828 1012 958 821 958 539 c 256
 958 271 828 71 600 71 c 256
EndSplineSet
Substitution2: "Single Substitution lookup 4 subtable" ordmasculine
EndChar

StartChar: oe
Encoding: 274 339 291
Width: 1963
VWidth: 0
GlyphClass: 2
Flags: W
PickledData: "(dp1
S'org.pippin.gimp.org.kernagic'
p2
(dp3
S'lstem'
p4
I0
sS'rstem'
p5
I0
ssS'com.typemytype.robofont.layerData'
p6
(dp7
S'b'
(dp8
S'name'
p9
S'oe'
p10
sS'lib'
p11
(dp12
sS'unicodes'
p13
(tsS'width'
p14
F1915.3599999999999
sS'contours'
p15
(tsS'components'
p16
(tsS'anchors'
p17
(tsssS'org.robofab.postScriptHintData'
p18
(dp19
s."
LayerCount: 2
Fore
SplineSet
1086 604 m 257
 1108 831 1243 991 1454 991 c 256
 1655 991 1743 854 1748 604 c 257
 1086 604 l 257
601 72 m 256
 354 72 242 280 242 528 c 256
 242 785 354 993 601 993 c 256
 853 993 960 784 960 527 c 256
 960 281 855 72 601 72 c 256
1779 164 m 257
 1663 105 1591 75 1465 75 c 256
 1265 75 1082 198 1082 523 c 257
 1842 523 l 257
 1842 523 1848 563 1848 594 c 258
 1848 606 l 258
 1848 902 1700 1084 1448 1084 c 258
 1446 1084 l 258
 1272 1084 1090 972 1027 767 c 257
 976 965 813 1084 601 1084 c 256
 294 1084 120 853 120 529 c 256
 120 213 294 -19 601 -19 c 256
 796 -19 964 99 1023 293 c 257
 1084 90 1261 -19 1456 -19 c 256
 1625 -19 1725 28 1822 85 c 257
 1791 164 l 257
 1779 164 l 257
EndSplineSet
EndChar

StartChar: ogonek
Encoding: 404 731 292
Width: 677
VWidth: 0
GlyphClass: 4
Flags: W
PickledData: "(dp1
S'org.pippin.gimp.org.kernagic'
p2
(dp3
S'lstem'
p4
I0
sS'rstem'
p5
I0
ssS'com.typemytype.robofont.layerData'
p6
(dp7
sS'org.robofab.postScriptHintData'
p8
(dp9
s."
LayerCount: 2
Fore
SplineSet
362 -400 m 256
 406 -400 455 -389 486 -374 c 257
 486 -303 l 257
 462 -314 425 -324 392 -324 c 256
 341 -324 297 -298 297 -234 c 256
 297 -149 382 -50 459 2 c 257
 393 2 l 257
 275 -58 196 -168 196 -265 c 256
 196 -356 267 -400 362 -400 c 256
EndSplineSet
EndChar

StartChar: one
Encoding: 17 49 296
Width: 1217
VWidth: 0
GlyphClass: 2
Flags: W
PickledData: "(dp1
S'org.pippin.gimp.org.kernagic'
p2
(dp3
S'lstem'
p4
I0
sS'rstem'
p5
I0
ssS'com.typemytype.robofont.layerData'
p6
(dp7
sS'org.robofab.postScriptHintData'
p8
(dp9
s."
LayerCount: 2
Fore
SplineSet
223 0 m 257
 1071 0 l 257
 1071 92 l 257
 729 92 l 257
 729 1456 l 257
 609 1456 l 257
 536 1404 321 1338 255 1327 c 257
 255 1228 l 257
 318 1235 502 1288 607 1346 c 257
 607 92 l 257
 223 92 l 257
 223 0 l 257
EndSplineSet
EndChar

StartChar: onehalf
Encoding: 124 189 297
Width: 1711
VWidth: 0
GlyphClass: 3
Flags: W
PickledData: "(dp1
S'org.pippin.gimp.org.kernagic'
p2
(dp3
S'lstem'
p4
I0
sS'rstem'
p5
I0
ssS'com.typemytype.robofont.layerData'
p6
(dp7
sS'org.robofab.postScriptHintData'
p8
(dp9
s."
LayerCount: 2
Fore
SplineSet
375 0 m 257
 474 0 l 257
 1359 1506 l 257
 1260 1506 l 257
 375 0 l 257
122 648 m 257
 525 648 l 257
 525 726 l 257
 381 726 l 257
 381 1498 l 257
 300 1498 l 257
 255 1454 163 1415 114 1398 c 257
 114 1316 l 257
 161 1334 244 1367 281 1392 c 257
 281 726 l 257
 122 726 l 257
 122 648 l 257
1080 0 m 257
 1589 0 l 257
 1589 86 l 257
 1204 86 l 257
 1260 142 1379 252 1416 289 c 256
 1538 406 1600 482 1600 604 c 256
 1600 760 1483 851 1332 851 c 256
 1206 851 1099 788 1044 682 c 257
 1108 629 l 257
 1168 721 1240 761 1331 761 c 256
 1431 761 1500 701 1500 601 c 256
 1500 520 1462 459 1351 347 c 256
 1310 306 1157 155 1080 81 c 257
 1080 0 l 257
EndSplineSet
Ligature2: "fracDiagonalFractionslookup11 subtable" one slash two
EndChar

StartChar: onequarter
Encoding: 123 188 298
Width: 1678
VWidth: 0
GlyphClass: 3
Flags: W
PickledData: "(dp1
S'org.pippin.gimp.org.kernagic'
p2
(dp3
S'lstem'
p4
I0
sS'rstem'
p5
I0
ssS'com.typemytype.robofont.layerData'
p6
(dp7
sS'org.robofab.postScriptHintData'
p8
(dp9
s."
LayerCount: 2
Fore
SplineSet
1086 283 m 257
 1381 719 l 257
 1381 283 l 257
 1086 283 l 257
389 0 m 257
 487 0 l 257
 1373 1506 l 257
 1274 1506 l 257
 389 0 l 257
1381 -1 m 257
 1475 -1 l 257
 1475 208 l 257
 1600 208 l 257
 1593 283 l 257
 1477 283 l 257
 1477 839 l 257
 1371 839 l 257
 982 272 l 257
 982 208 l 257
 1381 208 l 257
 1381 -1 l 257
122 648 m 257
 525 648 l 257
 525 726 l 257
 381 726 l 257
 381 1498 l 257
 300 1498 l 257
 255 1454 163 1415 114 1398 c 257
 114 1316 l 257
 161 1334 244 1367 281 1392 c 257
 281 726 l 257
 122 726 l 257
 122 648 l 257
EndSplineSet
Ligature2: "fracDiagonalFractionslookup11 subtable" one slash four
EndChar

StartChar: ordmasculine
Encoding: 121 186 300
Width: 892
VWidth: 0
GlyphClass: 2
Flags: W
PickledData: "(dp1
S'org.pippin.gimp.org.kernagic'
p2
(dp3
S'lstem'
p4
I0
sS'rstem'
p5
I0
ssS'com.typemytype.robofont.layerData'
p6
(dp7
S'b'
(dp8
S'name'
p9
S'ordmasculine'
p10
sS'lib'
p11
(dp12
sS'unicodes'
p13
(tsS'width'
p14
I965
sS'contours'
p15
(tsS'components'
p16
(tsS'anchors'
p17
(tsssS'org.robofab.postScriptHintData'
p18
(dp19
s."
LayerCount: 2
Fore
SplineSet
672 1139 m 256
 672 976 599 852 445 852 c 256
 299 852 226 977 226 1142 c 256
 226 1309 300 1435 445 1435 c 256
 595 1435 672 1307 672 1139 c 256
112 1141 m 256
 112 927 233 768 445 768 c 256
 645 768 779 930 779 1141 c 256
 779 1363 663 1520 445 1520 c 256
 233 1520 112 1360 112 1141 c 256
EndSplineSet
EndChar

StartChar: oslash
Encoding: 183 248 301
Width: 1199
VWidth: 0
GlyphClass: 2
Flags: W
PickledData: "(dp1
S'org.pippin.gimp.org.kernagic'
p2
(dp3
S'lstem'
p4
I0
sS'rstem'
p5
I0
ssS'com.typemytype.robofont.layerData'
p6
(dp7
sS'org.robofab.postScriptHintData'
p8
(dp9
s."
LayerCount: 2
Fore
SplineSet
216 -122 m 257
 278 -156 l 257
 1006 1195 l 257
 940 1227 l 257
 216 -122 l 257
EndSplineSet
Refer: 286 111 N 1 0 0 1 0 0 2
EndChar

StartChar: p
Encoding: 80 112 304
Width: 1223
VWidth: 0
GlyphClass: 2
Flags: W
PickledData: "(dp1
S'org.pippin.gimp.org.kernagic'
p2
(dp3
S'lstem'
p4
I0
sS'rstem'
p5
I0
ssS'com.fontlab.hintData'
p6
(dp7
S'vhints'
p8
((dp9
S'position'
p10
I193
sS'width'
p11
I122
s(dp12
g10
I193
sg11
I97
s(dp13
g10
I1009
sg11
I122
stp14
sS'hhints'
p15
((dp16
g10
I-19
sg11
I92
s(dp17
g10
I982
sg11
I92
stp18
ssS'com.typemytype.robofont.layerData'
p19
(dp20
sS'org.robofab.postScriptHintData'
p21
(dp22
s."
HStem: -19 92 982 92
VStem: 193 122 193 97 1009 122
AnchorPoint: "top" 661 1082 basechar 0
LayerCount: 2
Fore
SplineSet
638 72 m 256
 461 72 349 158 295 300 c 257
 295 557 l 258
 295 812 393 1012 649 1012 c 256
 878 1012 982 836 982 539 c 256
 982 248 864 72 638 72 c 256
180 -476 m 257
 301 -472 l 257
 301 -88 l 257
 293 149 l 257
 364 39 486 -20 641 -20 c 256
 921 -20 1105 194 1105 538 c 256
 1105 898 941 1104 657 1104 c 256
 468 1104 345 998 290 837 c 257
 276 1082 l 257
 180 1082 l 257
 180 -476 l 257
EndSplineSet
EndChar

StartChar: paragraph
Encoding: 117 182 305
Width: 1125
VWidth: 0
GlyphClass: 2
Flags: W
PickledData: "(dp1
S'org.pippin.gimp.org.kernagic'
p2
(dp3
S'lstem'
p4
I0
sS'rstem'
p5
I0
ssS'com.typemytype.robofont.layerData'
p6
(dp7
sS'org.robofab.postScriptHintData'
p8
(dp9
s."
LayerCount: 2
Fore
SplineSet
641 1371 m 257
 791 1371 l 257
 791 -196 l 257
 881 -196 l 257
 881 1456 l 257
 527 1456 l 258
 187 1456 145 1256 145 1140 c 256
 145 973 232 808 551 808 c 257
 551 -196 l 257
 641 -196 l 257
 641 1371 l 257
EndSplineSet
EndChar

StartChar: parenright
Encoding: 9 41 307
Width: 719
VWidth: 0
GlyphClass: 2
Flags: W
PickledData: "(dp1
S'org.pippin.gimp.org.kernagic'
p2
(dp3
S'lstem'
p4
I0
sS'rstem'
p5
I0
ssS'com.typemytype.robofont.layerData'
p6
(dp7
S'b'
(dp8
S'name'
p9
S'parenright'
p10
sS'lib'
p11
(dp12
sS'unicodes'
p13
(tsS'width'
p14
I766
sS'contours'
p15
(tsS'components'
p16
(tsS'anchors'
p17
(tsssS'org.robofab.postScriptHintData'
p18
(dp19
s."
LayerCount: 2
Fore
SplineSet
507 693 m 256
 507 1008 425 1317 254 1584 c 257
 148 1584 l 257
 148 1563 l 257
 346 1246 388 979 388 693 c 256
 388 407 346 141 148 -177 c 257
 148 -198 l 257
 254 -198 l 257
 425 70 507 379 507 693 c 256
EndSplineSet
EndChar

StartChar: partialdiff
Encoding: 466 8706 308
Width: 1174
VWidth: 0
GlyphClass: 2
Flags: W
PickledData: "(dp1
S'org.robofab.postScriptHintData'
p2
(dp3
s."
LayerCount: 2
Fore
SplineSet
480 54 m 256
 365 54 312 139 312 254 c 256
 312 488 534 844 913 848 c 257
 905 489 745 54 480 54 c 256
475 -19 m 256
 807 -19 1029 380 1029 906 c 256
 1029 1318 822 1560 536 1560 c 256
 444 1560 344 1535 240 1482 c 257
 267 1414 l 257
 358 1454 441 1473 514 1473 c 256
 771 1473 915 1247 915 925 c 258
 915 917 l 257
 451 917 180 545 180 270 c 256
 180 109 273 -19 475 -19 c 256
EndSplineSet
EndChar

StartChar: percent
Encoding: 5 37 309
Width: 1721
VWidth: 0
GlyphClass: 2
Flags: W
PickledData: "(dp1
S'org.pippin.gimp.org.kernagic'
p2
(dp3
S'lstem'
p4
I0
sS'rstem'
p5
I0
ssS'com.typemytype.robofont.layerData'
p6
(dp7
S'b'
(dp8
S'name'
p9
S'percent'
p10
sS'lib'
p11
(dp12
sS'unicodes'
p13
(tsS'width'
p14
I1563
sS'contours'
p15
(tsS'components'
p16
(tsS'anchors'
p17
(tsssS'org.robofab.postScriptHintData'
p18
(dp19
s."
LayerCount: 2
Fore
SplineSet
1273 -8 m 256
 1496 -8 1592 158 1592 371 c 256
 1592 588 1499 749 1273 749 c 256
 1053 749 955 585 955 371 c 256
 955 158 1049 -8 1273 -8 c 256
1275 69 m 256
 1109 69 1052 197 1052 371 c 256
 1052 541 1108 670 1275 670 c 256
 1440 670 1496 547 1496 371 c 256
 1496 202 1441 69 1275 69 c 256
370 0 m 257
 481 0 l 257
 1302 1456 l 257
 1201 1456 l 257
 370 0 l 257
393 712 m 256
 616 712 712 878 712 1091 c 256
 712 1308 619 1469 393 1469 c 256
 173 1469 78 1305 78 1091 c 256
 78 878 169 712 393 712 c 256
396 790 m 256
 229 790 173 917 173 1092 c 256
 173 1262 229 1391 396 1391 c 256
 560 1391 616 1268 616 1092 c 256
 616 922 561 790 396 790 c 256
EndSplineSet
EndChar

StartChar: period
Encoding: 14 46 310
Width: 517
VWidth: 0
GlyphClass: 2
Flags: W
PickledData: "(dp1
S'org.pippin.gimp.org.kernagic'
p2
(dp3
S'lstem'
p4
I0
sS'rstem'
p5
I0
ssS'com.typemytype.robofont.layerData'
p6
(dp7
S'b'
(dp8
S'name'
p9
S'period'
p10
sS'lib'
p11
(dp12
sS'unicodes'
p13
(tsS'width'
p14
I624
sS'contours'
p15
(tsS'components'
p16
(tsS'anchors'
p17
(tsssS'org.robofab.postScriptHintData'
p18
(dp19
s."
LayerCount: 2
Fore
SplineSet
263 -17 m 256
 330 -17 348 27 348 77 c 256
 348 126 330 170 263 170 c 256
 193 170 177 126 177 77 c 256
 177 27 195 -17 263 -17 c 256
EndSplineSet
EndChar

StartChar: periodcentered
Encoding: 118 183 311
Width: 500
VWidth: 0
GlyphClass: 2
Flags: W
PickledData: "(dp1
S'org.pippin.gimp.org.kernagic'
p2
(dp3
S'lstem'
p4
I0
sS'rstem'
p5
I0
ssS'com.typemytype.robofont.layerData'
p6
(dp7
S'b'
(dp8
S'name'
p9
S'periodcentered'
p10
sS'lib'
p11
(dp12
sS'unicodes'
p13
(tsS'width'
p14
I653
sS'contours'
p15
(tsS'components'
p16
(tsS'anchors'
p17
(tsssS'org.robofab.postScriptHintData'
p18
(dp19
s."
LayerCount: 2
Fore
SplineSet
247 534 m 256
 311 534 337 578 337 625 c 256
 337 670 311 714 247 714 c 256
 181 714 157 670 157 625 c 256
 157 579 183 534 247 534 c 256
EndSplineSet
EndChar

StartChar: perthousand
Encoding: 456 8240 312
Width: 2505
VWidth: 0
GlyphClass: 2
Flags: W
PickledData: "(dp1
S'org.pippin.gimp.org.kernagic'
p2
(dp3
S'lstem'
p4
I0
sS'rstem'
p5
I0
ssS'com.typemytype.robofont.layerData'
p6
(dp7
S'b'
(dp8
S'name'
p9
S'perthousand'
p10
sS'lib'
p11
(dp12
sS'unicodes'
p13
(tsS'width'
p14
I2251
sS'contours'
p15
(tsS'components'
p16
(tsS'anchors'
p17
(tsssS'org.robofab.postScriptHintData'
p18
(dp19
s."
LayerCount: 2
Fore
SplineSet
2057 -8 m 256
 2281 -8 2377 158 2377 371 c 256
 2377 588 2284 749 2057 749 c 256
 1837 749 1740 585 1740 371 c 256
 1740 158 1833 -8 2057 -8 c 256
2060 69 m 256
 1893 69 1837 197 1837 371 c 256
 1837 541 1893 670 2060 670 c 256
 2225 670 2280 547 2280 371 c 256
 2280 202 2226 69 2060 69 c 256
EndSplineSet
Refer: 309 37 N 1 0 0 1 4 0 2
EndChar

StartChar: pi
Encoding: 417 960 313
Width: 1348
VWidth: 0
GlyphClass: 2
Flags: W
PickledData: "(dp1
S'org.robofab.postScriptHintData'
p2
(dp3
sS'com.typemytype.robofont.layerData'
p4
(dp5
s."
LayerCount: 2
Fore
SplineSet
1080 -9 m 256
 1142 -9 1201 12 1242 44 c 257
 1242 127 l 257
 1214 116 1166 99 1125 99 c 256
 1025 99 981 189 981 391 c 256
 981 525 1001 728 1037 972 c 257
 1277 972 l 257
 1277 1082 l 257
 416 1082 l 258
 189 1082 127 1002 127 782 c 257
 198 782 l 257
 210 914 251 972 345 972 c 258
 470 972 l 257
 385 364 l 258
 354 144 218 83 113 83 c 257
 113 4 l 257
 416 4 468 112 489 334 c 258
 551 972 l 257
 949 972 l 257
 908 684 872 441 872 281 c 256
 872 86 925 -9 1080 -9 c 256
EndSplineSet
EndChar

StartChar: plus
Encoding: 11 43 314
Width: 1146
VWidth: 0
GlyphClass: 2
Flags: W
PickledData: "(dp1
S'org.pippin.gimp.org.kernagic'
p2
(dp3
S'lstem'
p4
I0
sS'rstem'
p5
I0
ssS'com.typemytype.robofont.layerData'
p6
(dp7
S'b'
(dp8
S'name'
p9
S'plus'
p10
sS'lib'
p11
(dp12
sS'unicodes'
p13
(tsS'width'
p14
I1136
sS'contours'
p15
(tsS'components'
p16
(tsS'anchors'
p17
(tsssS'org.robofab.postScriptHintData'
p18
(dp19
s."
LayerCount: 2
Fore
SplineSet
515 1092 m 257
 515 704 l 257
 144 704 l 257
 144 607 l 257
 514 607 l 257
 514 209 l 257
 625 209 l 257
 625 607 l 257
 988 607 l 257
 988 704 l 257
 625 704 l 257
 625 1092 l 257
 515 1092 l 257
EndSplineSet
EndChar

StartChar: plusminus
Encoding: 112 177 315
Width: 1157
VWidth: 0
GlyphClass: 2
Flags: W
PickledData: "(dp1
S'org.pippin.gimp.org.kernagic'
p2
(dp3
S'lstem'
p4
I0
sS'rstem'
p5
I0
ssS'com.typemytype.robofont.layerData'
p6
(dp7
sS'org.robofab.postScriptHintData'
p8
(dp9
s."
LayerCount: 2
Fore
SplineSet
110 86 m 257
 110 0 l 257
 1048 0 l 257
 1048 86 l 257
 110 86 l 257
521 1072 m 257
 521 674 l 257
 140 674 l 257
 140 597 l 257
 521 597 l 257
 521 189 l 257
 613 189 l 257
 613 597 l 257
 984 597 l 257
 984 674 l 257
 612 674 l 257
 612 1072 l 257
 521 1072 l 257
EndSplineSet
EndChar

StartChar: product
Encoding: 469 8719 316
Width: 1470
VWidth: 0
GlyphClass: 2
Flags: W
PickledData: "(dp1
S'org.pippin.gimp.org.kernagic'
p2
(dp3
S'lstem'
p4
I0
sS'rstem'
p5
I0
ssS'com.typemytype.robofont.layerData'
p6
(dp7
S'b'
(dp8
S'name'
p9
S'product'
p10
sS'lib'
p11
(dp12
sS'unicodes'
p13
(tsS'width'
p14
I1533
sS'contours'
p15
(tsS'components'
p16
(tsS'anchors'
p17
(tsssS'org.robofab.postScriptHintData'
p18
(dp19
s."
LayerCount: 2
Fore
SplineSet
213 1472 m 257
 213 0 l 257
 334 0 l 257
 334 1356 l 257
 1178 1356 l 257
 1178 0 l 257
 1299 0 l 257
 1299 1472 l 257
 213 1472 l 257
EndSplineSet
EndChar

StartChar: q
Encoding: 81 113 317
Width: 1221
VWidth: 0
GlyphClass: 2
Flags: W
PickledData: "(dp1
S'org.pippin.gimp.org.kernagic'
p2
(dp3
S'lstem'
p4
I0
sS'rstem'
p5
I0
ssS'com.typemytype.robofont.layerData'
p6
(dp7
sS'org.robofab.postScriptHintData'
p8
(dp9
s."
LayerCount: 2
Fore
SplineSet
593 72 m 256
 364 72 241 252 241 543 c 256
 241 831 369 1012 595 1012 c 256
 739 1012 856 944 923 803 c 257
 923 259 l 257
 867 142 745 72 593 72 c 256
920 -477 m 257
 1041 -475 l 257
 1041 1082 l 257
 940 1082 l 257
 932 919 l 257
 877 1019 772 1104 597 1104 c 256
 295 1104 117 877 117 543 c 256
 117 211 296 -20 590 -20 c 258
 592 -20 l 258
 741 -20 857 46 925 137 c 257
 920 -89 l 257
 920 -477 l 257
EndSplineSet
EndChar

StartChar: question
Encoding: 31 63 318
Width: 904
VWidth: 0
GlyphClass: 2
Flags: W
PickledData: "(dp1
S'org.pippin.gimp.org.kernagic'
p2
(dp3
S'lstem'
p4
I0
sS'rstem'
p5
I0
ssS'com.typemytype.robofont.layerData'
p6
(dp7
sS'org.robofab.postScriptHintData'
p8
(dp9
s."
LayerCount: 2
Fore
SplineSet
367 -15 m 256
 444 -15 468 34 468 82 c 256
 468 128 444 179 367 179 c 256
 291 179 270 128 270 82 c 256
 270 37 291 -15 367 -15 c 256
334 404 m 257
 395 404 l 257
 495 778 735 889 735 1185 c 256
 735 1390 591 1500 407 1500 c 256
 286 1500 187 1460 116 1410 c 257
 134 1306 l 257
 174 1333 284 1395 391 1395 c 256
 530 1395 613 1330 613 1179 c 256
 613 927 334 664 334 404 c 257
EndSplineSet
EndChar

StartChar: quotedbl
Encoding: 2 34 320
Width: 608
VWidth: 0
GlyphClass: 2
Flags: W
PickledData: "(dp1
S'org.robofab.postScriptHintData'
p2
(dp3
sS'com.typemytype.robofont.layerData'
p4
(dp5
s."
LayerCount: 2
Fore
SplineSet
402 1046 m 257
 453 1046 l 257
 485 1512 l 257
 359 1512 l 257
 402 1046 l 257
161 1046 m 257
 212 1046 l 257
 243 1512 l 257
 118 1512 l 257
 161 1046 l 257
EndSplineSet
EndChar

StartChar: quotedblbase
Encoding: 451 8222 321
Width: 650
VWidth: 0
GlyphClass: 2
Flags: W
PickledData: "(dp1
S'org.robofab.postScriptHintData'
p2
(dp3
s."
LayerCount: 2
Fore
SplineSet
362 -274 m 257
 424 -274 l 257
 527 173 l 257
 417 173 l 257
 362 -274 l 257
112 -274 m 257
 179 -274 l 257
 274 173 l 257
 171 173 l 257
 112 -274 l 257
EndSplineSet
EndChar

StartChar: quotedblleft
Encoding: 449 8220 322
Width: 866
VWidth: 0
GlyphClass: 2
Flags: W
PickledData: "(dp1
S'org.robofab.postScriptHintData'
p2
(dp3
sS'com.typemytype.robofont.layerData'
p4
(dp5
s."
LayerCount: 2
Fore
SplineSet
495 1011 m 257
 626 1011 l 257
 678 1473 l 257
 597 1473 l 257
 495 1011 l 257
184 1011 m 257
 315 1011 l 257
 367 1473 l 257
 285 1473 l 257
 184 1011 l 257
EndSplineSet
EndChar

StartChar: quotedblright
Encoding: 450 8221 323
Width: 866
VWidth: 0
GlyphClass: 2
Flags: W
PickledData: "(dp1
S'org.robofab.postScriptHintData'
p2
(dp3
sS'com.typemytype.robofont.layerData'
p4
(dp5
s."
LayerCount: 2
Fore
SplineSet
184 1011 m 257
 265 1011 l 257
 367 1473 l 257
 236 1473 l 257
 184 1011 l 257
495 1011 m 257
 577 1011 l 257
 678 1473 l 257
 547 1473 l 257
 495 1011 l 257
EndSplineSet
EndChar

StartChar: quoteleft
Encoding: 446 8216 324
Width: 522
VWidth: 0
GlyphClass: 2
Flags: W
PickledData: "(dp1
S'org.robofab.postScriptHintData'
p2
(dp3
sS'com.typemytype.robofont.layerData'
p4
(dp5
s."
LayerCount: 2
Fore
SplineSet
367 1473 m 257
 285 1473 l 257
 184 1011 l 257
 315 1011 l 257
 367 1473 l 257
EndSplineSet
EndChar

StartChar: quoteright
Encoding: 447 8217 325
Width: 522
VWidth: 0
GlyphClass: 2
Flags: W
PickledData: "(dp1
S'org.robofab.postScriptHintData'
p2
(dp3
sS'com.typemytype.robofont.layerData'
p4
(dp5
s."
LayerCount: 2
Fore
SplineSet
184 1011 m 257
 265 1011 l 257
 367 1473 l 257
 236 1473 l 257
 184 1011 l 257
EndSplineSet
EndChar

StartChar: quotesinglbase
Encoding: 448 8218 326
Width: 421
VWidth: 0
GlyphClass: 2
Flags: W
PickledData: "(dp1
S'org.robofab.postScriptHintData'
p2
(dp3
s."
LayerCount: 2
Fore
SplineSet
96 -274 m 257
 166 -274 l 257
 272 173 l 257
 161 173 l 257
 96 -274 l 257
EndSplineSet
EndChar

StartChar: quotesingle
Encoding: 7 39 327
Width: 289
VWidth: 0
GlyphClass: 2
Flags: W
PickledData: "(dp1
S'org.robofab.postScriptHintData'
p2
(dp3
s."
LayerCount: 2
Fore
SplineSet
102 987 m 257
 175 987 l 257
 193 1473 l 257
 80 1473 l 257
 102 987 l 257
EndSplineSet
EndChar

StartChar: r
Encoding: 82 114 328
Width: 771
VWidth: 0
GlyphClass: 2
Flags: W
PickledData: "(dp1
S'org.pippin.gimp.org.kernagic'
p2
(dp3
S'lstem'
p4
I0
sS'rstem'
p5
I352
ssS'com.fontlab.hintData'
p6
(dp7
S'vhints'
p8
((dp9
S'position'
p10
I193
sS'width'
p11
I122
s(dp12
g10
I193
sg11
I92
stp13
sS'hhints'
p14
((dp15
g10
I974
sg11
I94
stp16
ssS'com.typemytype.robofont.layerData'
p17
(dp18
sS'org.robofab.postScriptHintData'
p19
(dp20
s."
HStem: 974 94
VStem: 193 122 193 92
AnchorPoint: "bot" 262 0 basechar 0
AnchorPoint: "top" 453 1082 basechar 0
LayerCount: 2
Fore
SplineSet
181 0 m 257
 302 0 l 257
 302 631 l 258
 302 826 433 1000 636 1000 c 256
 647 1000 679 999 689 996 c 257
 700 1091 l 257
 679 1094 652 1096 619 1096 c 256
 492 1096 361 1032 285 834 c 257
 272 1082 l 257
 181 1082 l 257
 181 0 l 257
EndSplineSet
EndChar

StartChar: radical
Encoding: 474 8730 330
Width: 1199
VWidth: 0
GlyphClass: 2
Flags: W
PickledData: "(dp1
S'org.pippin.gimp.org.kernagic'
p2
(dp3
S'lstem'
p4
I0
sS'rstem'
p5
I0
ssS'com.typemytype.robofont.layerData'
p6
(dp7
S'b'
(dp8
S'name'
p9
S'radical'
p10
sS'lib'
p11
(dp12
sS'unicodes'
p13
(tsS'width'
p14
I1136
sS'contours'
p15
(tsS'components'
p16
(tsS'anchors'
p17
(tsssS'org.robofab.postScriptHintData'
p18
(dp19
s."
LayerCount: 2
Fore
SplineSet
1040 1690 m 257
 987 1467 685 268 632 45 c 257
 538 328 431 598 331 875 c 257
 86 821 l 257
 98 738 l 257
 241 768 l 257
 596 -162 l 257
 691 -162 l 257
 1138 1690 l 257
 1040 1690 l 257
EndSplineSet
EndChar

StartChar: registered
Encoding: 109 174 333
Width: 1923
VWidth: 0
GlyphClass: 2
Flags: W
PickledData: "(dp1
S'org.pippin.gimp.org.kernagic'
p2
(dp3
S'lstem'
p4
I0
sS'rstem'
p5
I0
ssS'com.typemytype.robofont.layerData'
p6
(dp7
sS'org.robofab.postScriptHintData'
p8
(dp9
s."
LayerCount: 2
Fore
SplineSet
959 -36 m 256
 1338 -36 1744 211 1744 750 c 256
 1744 1289 1338 1537 959 1537 c 256
 581 1537 177 1289 177 750 c 256
 177 211 580 -36 959 -36 c 256
959 34 m 256
 625 34 269 258 269 750 c 256
 269 1242 625 1466 959 1466 c 256
 1293 1466 1653 1241 1653 750 c 256
 1653 258 1293 34 959 34 c 256
755 853 m 257
 755 1177 l 257
 985 1177 l 258
 1158 1177 1218 1152 1218 1017 c 256
 1218 909 1185 853 1034 853 c 258
 755 853 l 257
659 309 m 257
 754 309 l 257
 754 770 l 257
 1013 770 l 257
 1013 769 1232 309 1232 309 c 257
 1336 309 l 257
 1109 782 l 257
 1239 787 1307 882 1307 1021 c 256
 1307 1181 1246 1260 990 1260 c 258
 659 1260 l 257
 659 309 l 257
EndSplineSet
EndChar

StartChar: ring
Encoding: 403 730 334
Width: 651
VWidth: 0
GlyphClass: 4
Flags: W
PickledData: "(dp1
S'org.robofab.postScriptHintData'
p2
(dp3
sS'com.typemytype.robofont.layerData'
p4
(dp5
s."
AnchorPoint: "top" 321 1057 mark 0
LayerCount: 2
Fore
SplineSet
322 1201 m 256
 417 1201 494 1272 494 1368 c 256
 494 1463 417 1534 322 1534 c 256
 226 1534 150 1464 150 1368 c 256
 150 1272 226 1201 322 1201 c 256
322 1265 m 256
 266 1265 223 1311 223 1366 c 256
 223 1422 266 1467 322 1467 c 256
 377 1467 423 1422 423 1366 c 256
 423 1311 377 1265 322 1265 c 256
EndSplineSet
EndChar

StartChar: s
Encoding: 83 115 335
Width: 946
VWidth: 0
GlyphClass: 2
Flags: W
PickledData: "(dp1
S'org.pippin.gimp.org.kernagic'
p2
(dp3
S'lstem'
p4
I168
sS'rstem'
p5
I620
ssS'org.robofab.postScriptHintData'
p6
(dp7
sS'com.typemytype.robofont.guides'
p8
((dp9
S'y'
I381
sS'x'
I77
sS'magnetic'
p10
I5
sS'angle'
p11
F90
sS'isGlobal'
p12
I00
stp13
sS'com.typemytype.robofont.layerData'
p14
(dp15
sS'com.fontlab.hintData'
p16
(dp17
S'vhints'
p18
((dp19
S'position'
p20
I142
sS'width'
p21
I107
s(dp22
g20
I738
sg21
I104
stp23
sS'hhints'
p24
((dp25
g20
I-19
sg21
I92
s(dp26
g20
I982
sg21
I92
stp27
ss."
HStem: -19 92 982 92
VStem: 142 107 738 104
AnchorPoint: "bot" 478 0 basechar 0
AnchorPoint: "top" 499 1082 basechar 0
LayerCount: 2
Fore
SplineSet
736 281 m 256
 736 139 656 72 487 72 c 256
 386 72 277 98 194 165 c 257
 180 165 l 257
 129 95 l 257
 227 17 361 -20 487 -20 c 256
 689 -20 842 73 842 284 c 256
 842 430 785 519 560 591 c 258
 417 636 l 257
 281 680 236 735 236 829 c 256
 236 951 346 1011 497 1011 c 256
 596 1011 681 980 737 936 c 257
 747 936 l 257
 798 1003 l 257
 739 1058 627 1104 496 1104 c 256
 274 1104 124 1004 124 828 c 256
 124 693 182 607 389 542 c 257
 533 498 l 257
 698 446 736 390 736 281 c 256
EndSplineSet
EndChar

StartChar: section
Encoding: 102 167 341
Width: 1055
VWidth: 0
GlyphClass: 2
Flags: W
PickledData: "(dp1
S'org.pippin.gimp.org.kernagic'
p2
(dp3
S'lstem'
p4
I0
sS'rstem'
p5
I0
ssS'com.typemytype.robofont.layerData'
p6
(dp7
S'b'
(dp8
S'name'
p9
S'section'
p10
sS'lib'
p11
(dp12
sS'unicodes'
p13
(tsS'width'
p14
I1079
sS'contours'
p15
(tsS'components'
p16
(tsS'anchors'
p17
(tsssS'org.robofab.postScriptHintData'
p18
(dp19
s."
LayerCount: 2
Fore
SplineSet
667 513 m 257
 655 518 569 549 511 567 c 256
 322 634 279 653 279 756 c 256
 279 854 344 902 402 928 c 256
 406 926 490 894 540 878 c 256
 686 825 787 775 787 683 c 256
 787 577 716 545 667 513 c 257
502 -61 m 256
 701 -61 877 27 877 235 c 256
 877 336 831 418 742 470 c 257
 826 517 882 577 882 680 c 256
 882 820 800 880 578 960 c 256
 346 1044 279 1064 279 1199 c 256
 279 1328 389 1393 551 1393 c 256
 649 1393 744 1365 815 1331 c 257
 842 1411 l 257
 753 1451 650 1475 542 1475 c 256
 333 1475 177 1378 177 1198 c 256
 177 1096 218 1026 315 970 c 257
 236 921 179 854 179 752 c 256
 179 605 260 557 470 486 c 256
 733 396 778 335 778 237 c 256
 778 87 658 23 510 23 c 256
 401 23 294 51 197 99 c 257
 183 10 l 257
 280 -35 395 -61 502 -61 c 256
EndSplineSet
EndChar

StartChar: semicolon
Encoding: 27 59 342
Width: 553
VWidth: 0
GlyphClass: 2
Flags: W
PickledData: "(dp1
S'org.pippin.gimp.org.kernagic'
p2
(dp3
S'lstem'
p4
I0
sS'rstem'
p5
I0
ssS'com.typemytype.robofont.layerData'
p6
(dp7
sS'org.robofab.postScriptHintData'
p8
(dp9
s."
LayerCount: 2
Fore
SplineSet
286 865 m 256
 357 865 377 916 377 961 c 256
 377 1005 357 1056 286 1056 c 256
 212 1056 192 1005 192 961 c 256
 192 916 214 865 286 865 c 256
203 -296 m 257
 263 -296 l 257
 263 -296 356 132 356 162 c 258
 356 211 l 257
 222 211 l 257
 222 136 203 -296 203 -296 c 257
EndSplineSet
EndChar

StartChar: seven
Encoding: 23 55 343
Width: 1217
VWidth: 0
GlyphClass: 2
Flags: W
PickledData: "(dp1
S'org.pippin.gimp.org.kernagic'
p2
(dp3
S'lstem'
p4
I0
sS'rstem'
p5
I0
ssS'com.typemytype.robofont.layerData'
p6
(dp7
sS'org.robofab.postScriptHintData'
p8
(dp9
s."
LayerCount: 2
Fore
SplineSet
372 0 m 257
 483 0 l 257
 1040 1365 l 257
 1040 1456 l 257
 193 1456 l 257
 220 1361 l 257
 926 1361 l 257
 372 0 l 257
EndSplineSet
EndChar

StartChar: six
Encoding: 22 54 344
Width: 1217
VWidth: 0
GlyphClass: 2
Flags: W
PickledData: "(dp1
S'org.pippin.gimp.org.kernagic'
p2
(dp3
S'lstem'
p4
I0
sS'rstem'
p5
I0
ssS'com.typemytype.robofont.layerData'
p6
(dp7
sS'org.robofab.postScriptHintData'
p8
(dp9
s."
LayerCount: 2
Fore
SplineSet
632 78 m 256
 409 78 296 244 296 423 c 256
 296 700 528 762 640 762 c 256
 848 762 972 620 972 431 c 256
 972 249 854 78 632 78 c 256
634 -20 m 256
 919 -20 1083 189 1083 431 c 256
 1083 692 887 857 670 857 c 256
 544 857 439 808 369 746 c 257
 525 979 686 1207 845 1437 c 257
 845 1456 l 257
 726 1456 l 257
 417 1009 l 258
 271 798 186 661 186 434 c 256
 186 211 332 -20 634 -20 c 256
EndSplineSet
EndChar

StartChar: slash
Encoding: 15 47 345
Width: 999
VWidth: 0
GlyphClass: 2
Flags: W
PickledData: "(dp1
S'org.pippin.gimp.org.kernagic'
p2
(dp3
S'lstem'
p4
I0
sS'rstem'
p5
I0
ssS'com.typemytype.robofont.layerData'
p6
(dp7
S'b'
(dp8
S'name'
p9
S'slash'
p10
sS'lib'
p11
(dp12
sS'unicodes'
p13
(tsS'width'
p14
I965
sS'contours'
p15
(tsS'components'
p16
(tsS'anchors'
p17
(tsssS'org.robofab.postScriptHintData'
p18
(dp19
s."
LayerCount: 2
Fore
SplineSet
131 -149 m 257
 216 -149 l 257
 902 1560 l 257
 814 1560 l 257
 131 -149 l 257
EndSplineSet
EndChar

StartChar: slashbar
Encoding: 65544 -1 346
Width: 723
VWidth: 0
GlyphClass: 4
Flags: W
PickledData: "(dp1
S'org.pippin.gimp.org.kernagic'
p2
(dp3
S'lstem'
p4
I0
sS'rstem'
p5
I0
ssS'com.typemytype.robofont.layerData'
p6
(dp7
S'b'
(dp8
S'name'
p9
S'slashbar'
p10
sS'lib'
p11
(dp12
sS'unicodes'
p13
(tsS'width'
p14
I908
sS'contours'
p15
(tsS'components'
p16
(tsS'anchors'
p17
(tsssS'org.robofab.postScriptHintData'
p18
(dp19
s."
LayerCount: 2
Fore
SplineSet
115 573 m 257
 641 905 l 257
 641 1004 l 257
 115 671 l 257
 115 573 l 257
EndSplineSet
EndChar

StartChar: sterling
Encoding: 98 163 348
Width: 1198
VWidth: 0
GlyphClass: 2
Flags: W
PickledData: "(dp1
S'org.pippin.gimp.org.kernagic'
p2
(dp3
S'lstem'
p4
I0
sS'rstem'
p5
I0
ssS'com.typemytype.robofont.layerData'
p6
(dp7
S'b'
(dp8
S'name'
p9
S'sterling'
p10
sS'lib'
p11
(dp12
sS'unicodes'
p13
(tsS'width'
p14
I1136
sS'contours'
p15
((dp16
S'points'
p17
((dp18
S'segmentType'
p19
S'line'
p20
sS'x'
I20
sS'smooth'
p21
I00
sS'y'
I0
s(dp22
g19
S'line'
p23
sS'x'
I8
sg21
I00
sS'y'
I115
s(dp24
g19
S'line'
p25
sS'x'
I180
sg21
I00
sS'y'
I132
s(dp26
g19
S'line'
p27
sS'x'
I180
sg21
I00
sS'y'
I683
s(dp28
g19
S'line'
p29
sS'x'
I8
sg21
I00
sS'y'
I683
s(dp30
g19
S'line'
p31
sS'x'
I8
sg21
I00
sS'y'
I806
s(dp32
g19
S'line'
p33
sS'x'
I180
sg21
I00
sS'y'
I806
s(dp34
g19
S'line'
p35
sS'x'
I180
sg21
I01
sS'y'
I920
s(dp36
S'y'
I1183
sS'x'
I180
sg21
I00
s(dp37
S'y'
I1476
sS'x'
I245
sg21
I00
s(dp38
g19
S'curve'
p39
sS'x'
I598
sg21
I01
sS'y'
I1476
s(dp40
S'y'
I1476
sS'x'
I742
sg21
I00
s(dp41
S'y'
I1421
sS'x'
I854
sg21
I00
s(dp42
g19
S'curve'
p43
sS'x'
I939
sg21
I00
sS'y'
I1347
s(dp44
g19
S'line'
p45
sS'x'
I871
sg21
I00
sS'y'
I1229
s(dp46
S'y'
I1297
sS'x'
I785
sg21
I00
s(dp47
S'y'
I1334
sS'x'
I700
sg21
I00
s(dp48
g19
S'curve'
p49
sS'x'
I598
sg21
I01
sS'y'
I1334
s(dp50
S'y'
I1334
sS'x'
I397
sg21
I00
s(dp51
S'y'
I1179
sS'x'
I356
sg21
I00
s(dp52
g19
S'curve'
p53
sS'x'
I356
sg21
I01
sS'y'
I949
s(dp54
g19
S'line'
p55
sS'x'
I356
sg21
I00
sS'y'
I806
s(dp56
g19
S'line'
p57
sS'x'
I739
sg21
I00
sS'y'
I806
s(dp58
g19
S'line'
p59
sS'x'
I739
sg21
I00
sS'y'
I683
s(dp60
g19
S'line'
p61
sS'x'
I356
sg21
I00
sS'y'
I683
s(dp62
g19
S'line'
p63
sS'x'
I356
sg21
I00
sS'y'
I134
s(dp64
g19
S'line'
p65
sS'x'
I953
sg21
I00
sS'y'
I134
s(dp66
g19
S'line'
p67
sS'x'
I940
sg21
I00
sS'y'
I0
stp68
stp69
sS'components'
p70
(tsS'anchors'
p71
(tsssS'org.robofab.postScriptHintData'
p72
(dp73
s."
LayerCount: 2
Fore
SplineSet
415 942 m 258
 415 1211 491 1379 708 1379 c 256
 819 1379 901 1337 982 1271 c 257
 992 1271 l 257
 1038 1348 l 257
 965 1415 861 1475 707 1475 c 256
 344 1475 302 1180 302 899 c 258
 302 774 l 257
 120 774 l 257
 120 690 l 257
 302 690 l 257
 302 89 l 257
 117 75 l 257
 129 0 l 257
 1034 0 l 257
 1042 91 l 257
 415 91 l 257
 415 690 l 257
 829 690 l 257
 829 774 l 257
 415 774 l 257
 415 942 l 258
EndSplineSet
EndChar

StartChar: t
Encoding: 84 116 350
Width: 768
VWidth: 0
GlyphClass: 2
Flags: W
PickledData: "(dp1
S'org.pippin.gimp.org.kernagic'
p2
(dp3
S'lstem'
p4
I189
sS'rstem'
p5
I480
ssS'com.fontlab.hintData'
p6
(dp7
S'vhints'
p8
((dp9
S'position'
p10
I244
sS'width'
p11
I122
s(dp12
g10
I286
sg11
I80
stp13
sS'hhints'
p14
((dp15
g10
I-11
sg11
I83
stp16
ssS'com.typemytype.robofont.layerData'
p17
(dp18
sS'org.robofab.postScriptHintData'
p19
(dp20
s."
HStem: -11 83
VStem: 244 122 286 80
AnchorPoint: "bot" 446 0 basechar 0
AnchorPoint: "top" 296 1305 basechar 0
LayerCount: 2
Fore
SplineSet
526 -9 m 256
 586 -9 656 -2 656 -2 c 257
 659 79 l 257
 659 79 576 75 531 75 c 256
 402 78 356 115 356 287 c 258
 356 1010 l 257
 670 1010 l 257
 670 1082 l 257
 356 1082 l 257
 356 1369 l 257
 258 1359 l 257
 238 1082 l 257
 80 1072 l 257
 80 1009 l 257
 236 1009 l 257
 236 282 l 258
 236 64 325 -9 526 -9 c 256
EndSplineSet
EndChar

StartChar: thorn
Encoding: 189 254 355
Width: 1238
VWidth: 0
GlyphClass: 2
Flags: W
PickledData: "(dp1
S'org.pippin.gimp.org.kernagic'
p2
(dp3
S'lstem'
p4
I0
sS'rstem'
p5
I0
ssS'com.typemytype.robofont.layerData'
p6
(dp7
S'b'
(dp8
S'name'
p9
S'thorn'
p10
sS'lib'
p11
(dp12
sS'unicodes'
p13
(tsS'width'
p14
I1221
sS'contours'
p15
(tsS'components'
p16
(tsS'anchors'
p17
(tsssS'org.robofab.postScriptHintData'
p18
(dp19
s."
LayerCount: 2
Fore
SplineSet
154 300 m 257
 154 -493 l 257
 271 -493 l 257
 271 300 l 257
 154 300 l 257
EndSplineSet
Refer: 155 98 N 1 0 0 1 -26 0 2
EndChar

StartChar: three
Encoding: 19 51 356
Width: 1217
VWidth: 0
GlyphClass: 2
Flags: W
PickledData: "(dp1
S'org.pippin.gimp.org.kernagic'
p2
(dp3
S'lstem'
p4
I0
sS'rstem'
p5
I0
ssS'com.typemytype.robofont.layerData'
p6
(dp7
sS'org.robofab.postScriptHintData'
p8
(dp9
s."
LayerCount: 2
Fore
SplineSet
585 -20 m 256
 900 -20 1061 154 1061 388 c 256
 1061 612 934 740 729 776 c 257
 915 814 1023 919 1023 1113 c 256
 1025 1344 840 1476 589 1476 c 256
 456 1476 278 1438 164 1307 c 257
 226 1239 l 257
 234 1239 l 257
 330 1333 459 1376 584 1376 c 258
 593 1376 l 258
 773 1376 911 1294 911 1113 c 256
 911 862 687 832 494 825 c 257
 429 825 l 257
 445 720 l 257
 493 720 l 257
 748 717 951 663 951 385 c 256
 951 172 804 79 590 79 c 256
 454 79 317 122 247 199 c 257
 237 199 l 257
 176 135 l 257
 244 44 403 -20 585 -20 c 256
EndSplineSet
EndChar

StartChar: threequarters
Encoding: 125 190 357
Width: 1728
VWidth: 0
GlyphClass: 3
Flags: W
PickledData: "(dp1
S'org.pippin.gimp.org.kernagic'
p2
(dp3
S'lstem'
p4
I0
sS'rstem'
p5
I0
ssS'com.typemytype.robofont.layerData'
p6
(dp7
sS'org.robofab.postScriptHintData'
p8
(dp9
s."
LayerCount: 2
Fore
SplineSet
1116 283 m 257
 1411 719 l 257
 1411 283 l 257
 1116 283 l 257
422 0 m 257
 521 0 l 257
 1406 1506 l 257
 1307 1506 l 257
 422 0 l 257
1411 -1 m 257
 1505 -1 l 257
 1505 208 l 257
 1630 208 l 257
 1623 283 l 257
 1507 283 l 257
 1507 839 l 257
 1401 839 l 257
 1011 272 l 257
 1011 208 l 257
 1411 208 l 257
 1411 -1 l 257
353 637 m 256
 493 637 623 710 623 876 c 256
 623 981 556 1060 453 1087 c 257
 551 1107 606 1194 606 1283 c 256
 606 1431 492 1499 364 1499 c 256
 281 1499 191 1470 123 1416 c 257
 165 1347 l 257
 228 1390 299 1413 360 1413 c 256
 445 1413 510 1369 510 1274 c 256
 510 1182 446 1126 328 1126 c 258
 246 1126 l 257
 246 1041 l 257
 329 1041 l 258
 458 1041 522 980 522 874 c 256
 522 765 444 721 352 721 c 256
 288 721 217 743 161 778 c 257
 126 706 l 257
 189 661 273 637 353 637 c 256
EndSplineSet
Ligature2: "fracDiagonalFractionslookup11 subtable" three slash four
EndChar

StartChar: tilde
Encoding: 405 732 358
Width: 1001
VWidth: 0
GlyphClass: 4
Flags: W
PickledData: "(dp1
S'org.robofab.postScriptHintData'
p2
(dp3
sS'com.fontlab.hintData'
p4
(dp5
S'vhints'
p6
((dp7
S'position'
p8
I169
sS'width'
p9
I63
s(dp10
g8
I657
sg9
I67
stp11
sS'hhints'
p12
((dp13
g8
I1301
sg9
I88
s(dp14
g8
I1400
sg9
I79
stp15
ssS'com.typemytype.robofont.layerData'
p16
(dp17
s."
HStem: 1301 88 1400 79
VStem: 169 63 657 67
AnchorPoint: "top" 500 1057 mark 0
LayerCount: 2
Fore
SplineSet
187 1317 m 257
 252 1317 l 257
 256 1386 281 1416 317 1416 c 256
 394 1416 523 1317 625 1317 c 256
 682 1317 748 1346 748 1497 c 257
 679 1497 l 257
 673 1430 652 1407 618 1407 c 256
 552 1407 440 1498 328 1498 c 256
 258 1498 187 1464 187 1317 c 257
EndSplineSet
EndChar

StartChar: trademark
Encoding: 463 8482 359
Width: 2020
VWidth: 0
GlyphClass: 2
Flags: W
PickledData: "(dp1
S'org.robofab.postScriptHintData'
p2
(dp3
sS'com.typemytype.robofont.layerData'
p4
(dp5
S'b'
(dp6
S'name'
p7
S'trademark'
p8
sS'lib'
p9
(dp10
sS'unicodes'
p11
(tsS'width'
p12
I2216
sS'contours'
p13
(tsS'components'
p14
(tsS'anchors'
p15
(tsss."
LayerCount: 2
Fore
SplineSet
380 540 m 257
 459 540 l 257
 459 1406 l 257
 756 1406 l 257
 756 1469 l 257
 94 1469 l 257
 94 1406 l 257
 380 1406 l 257
 380 540 l 257
924 540 m 257
 994 540 l 257
 1002 1373 l 257
 1346 646 l 257
 1412 646 l 257
 1739 1368 l 257
 1747 540 l 257
 1820 540 l 257
 1807 1469 l 257
 1716 1469 l 257
 1380 727 l 257
 1026 1469 l 257
 937 1469 l 257
 924 540 l 257
EndSplineSet
EndChar

StartChar: two
Encoding: 18 50 360
Width: 1217
VWidth: 0
GlyphClass: 2
Flags: W
PickledData: "(dp1
S'org.pippin.gimp.org.kernagic'
p2
(dp3
S'lstem'
p4
I0
sS'rstem'
p5
I0
ssS'com.typemytype.robofont.layerData'
p6
(dp7
sS'org.robofab.postScriptHintData'
p8
(dp9
s."
LayerCount: 2
Fore
SplineSet
210 1268 m 257
 308 1340 436 1379 560 1379 c 256
 703 1379 904 1318 904 1069 c 256
 904 871 827 813 678 664 c 258
 119 102 l 257
 152 0 l 257
 1016 0 l 257
 1021 99 l 257
 259 99 l 257
 760 596 l 258
 954 789 1019 861 1019 1083 c 256
 1019 1381 732 1476 557 1476 c 256
 397 1476 237 1419 147 1343 c 257
 197 1268 l 257
 210 1268 l 257
EndSplineSet
EndChar

StartChar: u
Encoding: 85 117 361
Width: 1180
VWidth: 0
GlyphClass: 2
Flags: W
PickledData: "(dp1
S'org.pippin.gimp.org.kernagic'
p2
(dp3
S'lstem'
p4
I0
sS'rstem'
p5
I0
ssS'com.fontlab.hintData'
p6
(dp7
S'vhints'
p8
((dp9
S'position'
p10
I162
sS'width'
p11
I166
s(dp12
g10
I862
sg11
I166
stp13
sS'hhints'
p14
((dp15
g10
I-21
sg11
I126
stp16
ssS'com.typemytype.robofont.layerData'
p17
(dp18
sS'org.robofab.postScriptHintData'
p19
(dp20
s."
HStem: -21 126
VStem: 162 166 862 166
AnchorPoint: "bot" 573 0 basechar 0
AnchorPoint: "top" 596 1082 basechar 0
LayerCount: 2
Fore
SplineSet
880 240 m 257
 829 162 738 71 552 71 c 256
 363 71 288 192 288 383 c 258
 288 1082 l 257
 167 1082 l 257
 167 415 l 258
 167 118 300 -20 546 -20 c 256
 713 -20 814 34 887 142 c 257
 898 0 l 257
 1001 0 l 257
 1001 1082 l 257
 880 1082 l 257
 880 240 l 257
EndSplineSet
EndChar

StartChar: underscore
Encoding: 63 95 369
Width: 868
VWidth: 0
GlyphClass: 2
Flags: W
PickledData: "(dp1
S'org.pippin.gimp.org.kernagic'
p2
(dp3
S'lstem'
p4
I0
sS'rstem'
p5
I0
ssS'com.typemytype.robofont.layerData'
p6
(dp7
sS'org.robofab.postScriptHintData'
p8
(dp9
s."
LayerCount: 2
Fore
SplineSet
0 -250 m 257
 868 -250 l 257
 868 -158 l 257
 0 -158 l 257
 0 -250 l 257
EndSplineSet
EndChar

StartChar: uni00AD
Encoding: 108 173 372
Width: 1050
VWidth: 0
GlyphClass: 2
Flags: W
PickledData: "(dp1
S'org.robofab.postScriptHintData'
p2
(dp3
s."
LayerCount: 2
Fore
SplineSet
127 268 m 257
 913 268 l 257
 913 366 l 257
 127 366 l 257
 127 268 l 257
EndSplineSet
EndChar

StartChar: uni00B2
Encoding: 113 178 373
Width: 750
VWidth: 0
GlyphClass: 2
Flags: W
PickledData: "(dp1
S'org.robofab.postScriptHintData'
p2
(dp3
sS'com.typemytype.robofont.layerData'
p4
(dp5
s."
LayerCount: 2
Fore
SplineSet
149 679 m 257
 638 679 l 257
 641 754 l 257
 274 754 l 257
 370 852 419 898 483 964 c 256
 590 1073 643 1149 643 1266 c 256
 643 1429 523 1514 380 1514 c 256
 247 1514 151 1465 82 1379 c 257
 134 1320 l 257
 195 1392 268 1435 381 1435 c 256
 487 1435 551 1365 551 1264 c 256
 551 1193 513 1126 417 1020 c 256
 332 928 260 864 149 755 c 257
 149 679 l 257
EndSplineSet
EndChar

StartChar: uni00B3
Encoding: 114 179 374
Width: 872
VWidth: 0
GlyphClass: 2
Flags: W
PickledData: "(dp1
S'org.robofab.postScriptHintData'
p2
(dp3
sS'com.typemytype.robofont.layerData'
p4
(dp5
s."
LayerCount: 2
Fore
SplineSet
440 658 m 256
 578 658 701 733 701 888 c 256
 701 1004 627 1074 536 1097 c 257
 627 1121 695 1188 695 1296 c 256
 695 1448 576 1511 444 1511 c 256
 337 1511 238 1476 183 1414 c 257
 226 1356 l 257
 273 1403 339 1436 439 1436 c 256
 537 1436 611 1391 611 1293 c 256
 611 1198 544 1131 424 1131 c 258
 314 1131 l 257
 314 1060 l 257
 424 1061 l 257
 542 1061 618 991 618 889 c 256
 618 788 541 733 440 733 c 256
 338 733 269 766 225 814 c 257
 181 752 l 257
 236 691 336 658 440 658 c 256
EndSplineSet
EndChar

StartChar: uni00B9
Encoding: 120 185 376
Width: 900
VWidth: 0
GlyphClass: 2
Flags: W
PickledData: "(dp1
S'org.robofab.postScriptHintData'
p2
(dp3
sS'com.typemytype.robofont.layerData'
p4
(dp5
s."
LayerCount: 2
Fore
SplineSet
278 672 m 257
 754 672 l 257
 754 750 l 257
 572 750 l 257
 572 1503 l 257
 487 1503 l 257
 444 1462 334 1418 277 1403 c 257
 277 1323 l 257
 332 1335 433 1372 470 1397 c 257
 470 750 l 257
 278 750 l 257
 278 672 l 257
EndSplineSet
EndChar

StartChar: uni02C9
Encoding: 400 713 445
Width: 600
VWidth: 0
GlyphClass: 4
Flags: W
PickledData: "(dp1
S'org.robofab.postScriptHintData'
p2
(dp3
s."
AnchorPoint: "top" 316 1057 mark 0
LayerCount: 2
Fore
SplineSet
24 1296 m 257
 574 1296 l 257
 574 1398 l 257
 24 1398 l 257
 24 1296 l 257
EndSplineSet
EndChar

StartChar: uni0307
Encoding: 407 775 446
Width: 322
VWidth: 0
GlyphClass: 4
Flags: W
PickledData: "(dp1
S'org.robofab.postScriptHintData'
p2
(dp3
sS'com.typemytype.robofont.layerData'
p4
(dp5
s."
LayerCount: 2
Fore
SplineSet
258 1450 m 256
 258 1507 228 1538 169 1538 c 256
 108 1538 78 1507 78 1450 c 256
 78 1392 108 1361 169 1361 c 256
 228 1361 258 1392 258 1450 c 256
EndSplineSet
EndChar

StartChar: uni2074
Encoding: 460 8308 465
Width: 709
VWidth: 0
GlyphClass: 2
Flags: W
PickledData: "(dp1
S'org.robofab.postScriptHintData'
p2
(dp3
sS'com.typemytype.robofont.layerData'
p4
(dp5
s."
LayerCount: 2
Fore
SplineSet
181 940 m 257
 447 1384 l 257
 445 940 l 257
 181 940 l 257
445 644 m 257
 542 644 l 257
 540 867 l 257
 667 867 l 257
 666 940 l 257
 543 940 l 257
 543 1506 l 257
 438 1506 l 257
 84 946 l 257
 84 867 l 257
 445 867 l 257
 445 644 l 257
EndSplineSet
EndChar

StartChar: afii61289
Encoding: 462 8467 466
Width: 1135
VWidth: 0
Flags: HW
PickledData: "(dp1
S'org.robofab.postScriptHintData'
p2
(dp3
s."
LayerCount: 2
Fore
SplineSet
533 715 m 257
 695 1352 l 258
 735.500301999 1512.19546205 825.373 1581.33 907.67 1581.33 c 256
 988.243 1581.33 1059 1515.72 1059 1407 c 256
 1059 1304 985 1108 777 937 c 257
 533 715 l 257
312 237 m 256
 312 53 398 -21 535 -21 c 256
 738 -21 873 98 873 98 c 257
 852 174 l 257
 750 112 665 76 581 76 c 256
 482 76 441 128 441 229 c 256
 441 280 451 342 470 417 c 258
 516 607 l 257
 816 865 l 258
 1053 1069 1145 1201 1145 1411 c 256
 1145 1601 1023 1676 896 1677 c 256
 780 1677 660 1628 597 1396 c 258
 387 622 l 257
 87 391 l 257
 125 334 l 257
 360 514 l 257
 327 403 312 311 312 237 c 256
EndSplineSet
EndChar

StartChar: Delta
Encoding: 468 8710 468
Width: 1326
VWidth: 0
Flags: W
PickledData: "(dp1
S'org.pippin.gimp.org.kernagic'
p2
(dp3
S'lstem'
p4
I0
sS'rstem'
p5
I0
ssS'com.typemytype.robofont.layerData'
p6
(dp7
S'b'
(dp8
S'name'
p9
S'uni2206'
p10
sS'lib'
p11
(dp12
sS'unicodes'
p13
(tsS'width'
p14
I1278
sS'contours'
p15
(tsS'components'
p16
(tsS'anchors'
p17
(tsssS'org.robofab.postScriptHintData'
p18
(dp19
s."
LayerCount: 2
Fore
SplineSet
691 1265 m 257
 1097 129 l 257
 217 129 l 257
 625 1265 l 257
 657 1381 l 257
 691 1265 l 257
602 1515 m 257
 90 84 l 257
 90 0 l 257
 1239 0 l 257
 1239 84 l 257
 728 1515 l 257
 602 1515 l 257
EndSplineSet
EndChar

StartChar: v
Encoding: 86 118 479
Width: 1052
VWidth: 0
GlyphClass: 2
Flags: W
PickledData: "(dp1
S'org.pippin.gimp.org.kernagic'
p2
(dp3
S'lstem'
p4
I0
sS'rstem'
p5
I0
ssS'com.typemytype.robofont.guides'
p6
((dp7
S'y'
I552
sS'x'
I438
sS'magnetic'
p8
I5
sS'angle'
p9
I0
sS'isGlobal'
p10
I00
stp11
sS'com.typemytype.robofont.layerData'
p12
(dp13
sS'org.robofab.postScriptHintData'
p14
(dp15
s."
LayerCount: 2
Fore
SplineSet
463 0 m 257
 592 0 l 257
 991 1082 l 257
 871 1082 l 257
 758 761 645 439 527 123 c 257
 408 439 297 761 184 1082 c 257
 64 1082 l 257
 463 0 l 257
EndSplineSet
EndChar

StartChar: w
Encoding: 87 119 480
Width: 1507
VWidth: 0
GlyphClass: 2
Flags: W
PickledData: "(dp1
S'org.pippin.gimp.org.kernagic'
p2
(dp3
S'lstem'
p4
I0
sS'rstem'
p5
I0
ssS'com.typemytype.robofont.layerData'
p6
(dp7
sS'org.robofab.postScriptHintData'
p8
(dp9
s."
AnchorPoint: "top" 755 1082 basechar 0
LayerCount: 2
Fore
SplineSet
756 968 m 257
 1074 0 l 257
 1173 0 l 257
 1457 1082 l 257
 1350 1082 l 257
 1120 144 l 257
 817 1065 l 257
 690 1065 l 257
 391 145 l 257
 161 1082 l 257
 50 1082 l 257
 336 0 l 257
 438 0 l 257
 756 968 l 257
EndSplineSet
EndChar

StartChar: x
Encoding: 88 120 485
Width: 1028
VWidth: 0
GlyphClass: 2
Flags: W
PickledData: "(dp1
S'org.pippin.gimp.org.kernagic'
p2
(dp3
S'lstem'
p4
I0
sS'rstem'
p5
I0
ssS'com.fontlab.hintData'
p6
(dp7
S'hhints'
p8
((dp9
S'position'
p10
I0
sS'width'
p11
I22
s(dp12
g10
I1034
sg11
I21
stp13
ssS'com.typemytype.robofont.layerData'
p14
(dp15
sS'org.robofab.postScriptHintData'
p16
(dp17
s."
HStem: 0 22 1034 21
LayerCount: 2
Fore
SplineSet
592 545 m 257
 977 1082 l 257
 849 1082 l 257
 533 629 l 257
 214 1082 l 257
 79 1082 l 257
 454 550 l 257
 50 0 l 257
 178 0 l 257
 514 465 l 257
 842 0 l 257
 975 0 l 257
 592 545 l 257
EndSplineSet
EndChar

StartChar: y
Encoding: 89 121 486
Width: 1091
VWidth: 0
GlyphClass: 2
Flags: W
PickledData: "(dp1
S'org.pippin.gimp.org.kernagic'
p2
(dp3
S'lstem'
p4
I0
sS'rstem'
p5
I0
ssS'com.typemytype.robofont.layerData'
p6
(dp7
sS'org.robofab.postScriptHintData'
p8
(dp9
s."
AnchorPoint: "top" 571 1082 basechar 0
LayerCount: 2
Fore
SplineSet
1035 1082 m 257
 919 1082 l 257
 574 183 l 257
 189 1082 l 257
 64 1082 l 257
 518 43 l 257
 357 -372 l 257
 456 -405 l 257
 1035 1082 l 257
EndSplineSet
EndChar

StartChar: yen
Encoding: 100 165 490
Width: 1278
VWidth: 0
GlyphClass: 2
Flags: W
PickledData: "(dp1
S'org.pippin.gimp.org.kernagic'
p2
(dp3
S'lstem'
p4
I0
sS'rstem'
p5
I0
ssS'com.typemytype.robofont.layerData'
p6
(dp7
S'b'
(dp8
S'name'
p9
S'yen'
p10
sS'lib'
p11
(dp12
sS'unicodes'
p13
(tsS'width'
p14
I1366
sS'contours'
p15
(tsS'components'
p16
(tsS'anchors'
p17
(tsssS'org.robofab.postScriptHintData'
p18
(dp19
s."
LayerCount: 2
Fore
SplineSet
258 580 m 257
 1020 580 l 257
 1020 659 l 257
 258 659 l 257
 258 580 l 257
258 300 m 257
 1020 300 l 257
 1020 379 l 257
 258 379 l 257
 258 300 l 257
EndSplineSet
Refer: 124 89 N 1 0 0 1 0 0 2
EndChar

StartChar: z
Encoding: 90 122 492
Width: 939
VWidth: 0
GlyphClass: 2
Flags: W
PickledData: "(dp1
S'org.pippin.gimp.org.kernagic'
p2
(dp3
S'lstem'
p4
I0
sS'rstem'
p5
I0
ssS'com.typemytype.robofont.layerData'
p6
(dp7
sS'org.robofab.postScriptHintData'
p8
(dp9
s."
AnchorPoint: "bot" 457 0 basechar 0
AnchorPoint: "top" 489 1082 basechar 0
LayerCount: 2
Fore
SplineSet
136 1082 m 257
 139 997 l 257
 708 997 l 257
 115 83 l 257
 115 0 l 257
 827 0 l 257
 824 86 l 257
 230 86 l 257
 821 998 l 257
 821 1082 l 257
 136 1082 l 257
EndSplineSet
EndChar

StartChar: zero
Encoding: 16 48 496
Width: 1240
VWidth: 0
GlyphClass: 2
Flags: W
PickledData: "(dp1
S'org.pippin.gimp.org.kernagic'
p2
(dp3
S'lstem'
p4
I0
sS'rstem'
p5
I0
ssS'com.typemytype.robofont.layerData'
p6
(dp7
S'b'
(dp8
S'name'
p9
S'zero'
p10
sS'lib'
p11
(dp12
sS'unicodes'
p13
(tsS'width'
p14
I1248
sS'contours'
p15
(tsS'components'
p16
(tsS'anchors'
p17
(tsssS'org.robofab.postScriptHintData'
p18
(dp19
s."
LayerCount: 2
Fore
SplineSet
624 -20 m 256
 947 -20 1090 253 1090 717 c 256
 1090 1211 925 1476 624 1476 c 256
 320 1476 142 1209 142 717 c 256
 142 253 299 -20 624 -20 c 256
624 83 m 256
 418 83 261 233 261 719 c 258
 261 728 l 258
 261 1182 418 1372 624 1372 c 256
 829 1372 973 1220 973 722 c 256
 973 235 829 83 624 83 c 256
EndSplineSet
EndChar

StartChar: dotlessj
Encoding: 396 -1 497
Width: 526
VWidth: 0
GlyphClass: 2
Flags: HW
AnchorPoint: "top" 293 1081 basechar 0
LayerCount: 2
Fore
SplineSet
230 1082 m 257
 230 43 l 258
 230 -158 228 -215 76 -227 c 257
 30 -231 l 257
 34 -336 l 257
 91 -333 l 257
 262 -322 351 -254 351 -16 c 258
 351 1082 l 257
 230 1082 l 257
EndSplineSet
EndChar

StartChar: Sigma
Encoding: 414 931 498
Width: 1238
VWidth: 0
GlyphClass: 2
Flags: HW
LayerCount: 2
Fore
SplineSet
128 1518 m 257
 128 1442 l 257
 690 613 l 257
 105 -229 l 257
 105 -302 l 257
 1128 -302 l 257
 1128 -176 l 257
 250 -176 l 257
 856 615 l 257
 270 1402 l 257
 1087 1402 l 257
 1087 1518 l 257
 128 1518 l 257
EndSplineSet
EndChar

StartChar: uni03BC
Encoding: 416 956 499
Width: 1176
VWidth: 0
GlyphClass: 2
Flags: HW
LayerCount: 2
Fore
SplineSet
168 -329 m 1
 288 -329 l 1
 288 62.4809712938 l 1
 350.833194097 6.89151054107 437.406667008 -20 546 -20 c 0
 713 -20 814 34 887 142 c 1
 898 0 l 1
 1001 0 l 1
 1001 1082 l 1
 880 1082 l 1
 880 240 l 1
 829 162 738 71 552 71 c 0
 363 71 288 192 288 383 c 2
 288 1082 l 1
 167 1082 l 1
 168 -329 l 1
EndSplineSet
EndChar

StartChar: emptyset
Encoding: 467 8709 500
Width: 1678
VWidth: 0
GlyphClass: 2
Flags: HW
LayerCount: 2
Fore
SplineSet
112 733 m 0
 112 1150 459 1473 832 1473 c 0
 1006 1473 1174 1403 1304 1286 c 1
 1481 1485 l 1
 1518 1456 l 1
 1337 1254 l 1
 1467 1122 1552 939 1552 733 c 1
 1552 316 1205 -7 832 -7 c 0
 662 -7 498 60 369 172 c 1
 177 -43 l 1
 145 -14 l 1
 337 202 l 1
 201 335 112 522 112 733 c 0
398 204 m 1
 519 99 673 37 832 37 c 0
 1183 37 1509 341 1509 733 c 0
 1509 926 1430 1097 1308 1222 c 1
 398 204 l 1
366 234 m 1
 1275 1254 l 1
 1153 1364 995 1429 832 1429 c 0
 481 1429 155 1125 155 733 c 0
 155 535 238 359 366 234 c 1
EndSplineSet
EndChar

StartChar: uni03A9
Encoding: 415 937 501
Width: 1603
VWidth: 0
GlyphClass: 2
Flags: HW
LayerCount: 2
Fore
SplineSet
123 0 m 1
 108 117 l 1
 469 117 l 1
 268 256 123 485 123 773 c 0
 123 1183 419 1447 816 1447 c 0
 1228 1447 1486 1154 1486 770 c 0
 1486 475 1310 252 1134 117 c 1
 1491 117 l 1
 1478 0 l 1
 972 0 l 1
 971 110 l 1
 1178 248 1330 473 1330 751 c 0
 1330 1056 1155 1319 810 1319 c 0
 496 1319 279 1093 279 756 c 0
 279 480 422 247 634 110 c 1
 635 0 l 1
 123 0 l 1
EndSplineSet
EndChar

StartChar: uni0358
Encoding: 412 856 502
Width: 322
VWidth: 0
GlyphClass: 4
Flags: HW
LayerCount: 2
Fore
SplineSet
258 1450 m 256
 258 1507 228 1538 169 1538 c 256
 108 1538 78 1507 78 1450 c 256
 78 1392 108 1361 169 1361 c 256
 228 1361 258 1392 258 1450 c 256
EndSplineSet
EndChar

StartChar: uni0259
Encoding: 397 601 503
Width: 1122
VWidth: 0
Flags: HW
HStem: 1009 94 10 92
AnchorPoint: "bot" 537 1084 basechar 0
LayerCount: 2
Fore
SplineSet
904 468 m 261
 882 235 747 73 535 73 c 260
 334 73 247 214 241 468 c 261
 904 468 l 261
148 549 m 261
 148 549 142 498 142 469 c 260
 142 164 287 -20 542 -20 c 263
 800 -20 1028 183 1028 547 c 260
 1028 886 818 1104 532 1104 c 260
 382 1104 265 1063 168 1007 c 261
 203 924 l 261
 215 924 l 261
 311 977 403 1010 517 1010 c 260
 728 1010 896 870 908 549 c 261
 148 549 l 261
EndSplineSet
EndChar
